<svg viewBox="0 0 1728 189" fill="none" xmlns="http://www.w3.org/2000/svg" style="user-select: auto !important;">
                            <path d="M1053.78 79.489H567.444C509.964 79.489 457.141 79.6071 415.542 79.8097C394.75 79.9447 376.743 80.0628 362.348 80.164C355.159 80.2484 348.881 80.316 343.582 80.3666C338.451 80.4679 334.3 80.5353 331.195 80.6028C331.127 78.5946 331.076 77.0588 331.026 76.0125C330.975 74.8987 330.908 74.3418 330.857 74.3418C330.806 74.3418 330.739 74.8987 330.688 76.0125C330.671 76.5694 330.638 77.2614 330.604 78.0714C330.587 78.9996 330.553 80.0628 330.52 81.261C333.777 81.3117 338.164 81.396 343.565 81.4973C348.847 81.5648 355.142 81.6323 362.331 81.6998C376.726 81.801 394.733 81.9192 415.525 82.0542C457.141 82.2567 509.947 82.3748 567.427 82.3748H1053.76C1120.91 82.3748 1181.72 82.206 1225.72 81.9529C1247.72 81.8179 1265.53 81.666 1277.83 81.4973C1283.97 81.3791 1288.73 81.2947 1292 81.2272C1295.24 81.126 1296.95 81.0416 1296.95 80.9404C1296.95 80.8391 1295.24 80.7378 1292 80.6535C1288.75 80.586 1283.97 80.5016 1277.83 80.3834C1265.53 80.2147 1247.72 80.0628 1225.72 79.9278C1181.72 79.6747 1120.91 79.5059 1053.76 79.5059L1053.78 79.489Z" fill="#8ABAD3" style="user-select: auto !important;"></path>
                            <path d="M1325.18 71.4907C1319.83 70.0731 1314.1 70.0562 1308.78 71.4907H1284.31C1270.2 64.8921 1253.09 64.7571 1239.01 71.4907L892.192 70.2081C877.476 66.3941 855.942 64.8753 841.158 71.4907H807.575C803.17 68.7568 798.833 67.3054 795.238 67.7105C792.521 68.0142 788.454 65.7191 783.273 66.1072C781.805 66.2253 771.696 70.1069 772.101 71.4907H767.173C765.874 69.4487 763.798 67.8117 761.52 66.9173C757.722 65.4491 753.487 65.6684 749.47 66.3266C743.833 67.2548 738.315 69.0099 733.168 71.4907H479.637C464.617 66.9173 450.036 64.9428 436.89 71.4907H384.439C348.476 68.0817 318.251 67.2042 299.72 71.4907H277.056C256.18 65.1959 245.801 63.7277 234.697 71.4907C222.664 63.3395 208.741 65.5672 194.126 71.4907H73.6138C72.9725 71.2882 72.3481 71.0857 71.7068 70.9169C65.7832 69.2968 59.5897 68.8749 53.4637 68.4699C49.6159 68.2167 45.7344 67.9636 41.9541 68.7399C39.4227 69.263 37.0432 70.2419 34.8155 71.4907H0V216.288H1728V71.4907H1541.84C1520.76 65.8203 1500.81 63.9302 1483.55 71.1025L1325.18 71.4907Z" fill="#50BE82" style="user-select: auto !important;"></path>
                            <path d="M220.959 65.416C218.023 64.7578 214.951 64.8253 212.066 65.3822C209.163 65.9391 206.463 66.918 203.83 67.8124C201.923 68.4875 200.185 69.1119 198.43 69.7532C197.063 70.2594 196.168 70.5632 196.151 71.002C196.151 71.3564 197.13 71.7783 198.75 71.7614C200.387 71.7952 202.564 71.3057 204.758 70.5294C207.425 69.6181 209.99 68.6899 212.589 68.2005C215.188 67.6942 217.82 67.6436 220.352 68.2005C224.537 69.095 227.862 70.7657 228.351 70.0232C228.57 69.6857 227.929 68.9094 226.68 67.9137C225.398 66.9686 223.389 65.9223 220.959 65.3822V65.416Z" fill="#5DA279" style="user-select: auto !important;"></path>
                            <path d="M243.843 65.0443C240.451 65.6012 237.211 67.0356 234.511 69.1958C232.232 71.0184 231.439 73.3642 232.097 73.7693C232.773 74.2249 234.41 72.9423 236.3 71.4403C238.595 69.6008 241.396 68.3689 244.299 67.8795C246.678 67.4744 248.72 67.1201 248.839 66.3269C248.974 65.5674 246.695 64.5717 243.826 65.0443H243.843Z" fill="#5DA279" style="user-select: auto !important;"></path>
                            <path d="M267.504 68.065C264.702 67.0018 261.715 66.6811 258.846 66.7824C255.96 66.9005 253.142 67.4237 250.408 68.1662C245.869 69.3813 242.696 71.5414 243 72.2334C243.32 73.0097 246.898 72.0815 251.168 70.9508C256.281 69.5669 261.749 68.9594 266.491 70.7652C270.39 72.1828 272.972 74.6804 273.664 74.1235C273.95 73.8872 273.63 72.9084 272.634 71.6427C271.655 70.377 269.833 68.9425 267.521 68.065H267.504Z" fill="#5DA279" style="user-select: auto !important;"></path>
                            <path d="M454.931 65.8553C449.513 65.8046 444.096 66.9016 439.135 69.0617C434.983 70.8844 432.452 73.6689 432.941 74.2596C433.447 74.9009 436.502 73.3483 440.282 71.6944C444.873 69.6861 449.902 68.6736 454.897 68.7242C459.032 68.7748 462.441 69.0111 462.66 68.2179C462.879 67.4754 459.47 65.889 454.931 65.8384V65.8553Z" fill="#5DA279" style="user-select: auto !important;"></path>
                            <path d="M476.482 67.9973C471.452 67.1366 466.238 67.3223 461.276 68.5542C457.125 69.5837 454.34 71.7776 454.711 72.4526C455.1 73.1783 458.188 72.2669 461.968 71.3556C466.542 70.2249 471.351 70.0562 475.992 70.8494C479.823 71.5075 482.979 72.1657 483.3 71.4231C483.62 70.7143 480.684 68.7399 476.465 68.0142L476.482 67.9973Z" fill="#5DA279" style="user-select: auto !important;"></path>
                            <path d="M1053.78 71.5071L671.687 70.8151C618.932 70.7814 571.173 70.9164 536.594 71.1864C519.312 71.3214 505.322 71.4902 495.652 71.6758C490.826 71.7771 487.062 71.8783 484.514 71.9796C481.966 72.0809 480.632 72.1821 480.632 72.2834C480.632 72.3846 481.966 72.469 484.514 72.5534C487.062 72.6378 490.809 72.7221 495.652 72.7896C505.322 72.9584 519.312 73.0765 536.594 73.2115C571.156 73.4647 618.932 73.6334 671.687 73.6841L1053.76 74.376C1106.52 74.5954 1154.29 74.5279 1188.82 74.8654C1206.22 75.1186 1220.18 73.2622 1229.73 71.6252C1234.51 70.7814 1238.17 69.9544 1240.65 69.3131C1243.11 68.655 1244.4 68.2499 1244.36 68.1487C1244.33 68.0474 1243.01 68.2837 1240.51 68.7394C1238.02 69.195 1234.32 69.8363 1229.55 70.5113C1220.01 71.7939 1206.07 73.3297 1188.87 72.8234C1154.28 71.9627 1106.54 71.7096 1053.76 71.4902L1053.78 71.5071Z" fill="#5DA279" style="user-select: auto !important;"></path>
                            <path d="M1263.87 65.8711C1258.37 66.0061 1252.9 67.4406 1248.04 70.0226C1243.98 72.1997 1241.7 75.3049 1242.25 75.828C1242.83 76.4187 1245.71 74.5117 1249.39 72.5541C1253.85 70.1745 1258.88 68.8582 1263.94 68.74C1268.11 68.6388 1271.57 68.8751 1271.77 68.0819C1271.99 67.3394 1268.5 65.753 1263.87 65.8542V65.8711Z" fill="#5DA279" style="user-select: auto !important;"></path>
                            <path d="M1283.31 68.6552C1279.79 68.4527 1276.23 69.0939 1273.02 70.5284C1270.3 71.7435 1268.87 73.8193 1269.39 74.3931C1269.91 75.0006 1271.9 74.1737 1274.18 73.1443C1276.97 71.8954 1280.09 71.3385 1283.14 71.5073C1285.64 71.6592 1287.79 71.7435 1288.07 70.9841C1288.36 70.2584 1286.28 68.8239 1283.31 68.6383V68.6552Z" fill="#5DA279" style="user-select: auto !important;"></path>
                            <path d="M49.7176 65.7872C44.3848 65.8041 39.0857 67.0361 34.276 69.3481C30.2594 71.2889 27.9305 74.1747 28.4368 74.7485C28.9768 75.3729 31.8795 73.7022 35.5248 71.947C39.9295 69.8206 44.8236 68.6899 49.7176 68.6731C53.751 68.6562 57.0925 68.8756 57.3119 68.0824C57.5313 67.3399 54.1729 65.7704 49.7008 65.7872H49.7176Z" fill="#5DA279" style="user-select: auto !important;"></path>
                            <path d="M75.909 70.6469C69.4792 68.9086 62.695 68.5542 56.1302 69.6174C50.6286 70.5118 46.7302 72.942 47.0677 73.6339C47.4052 74.3934 51.5061 73.2964 56.6027 72.4695C62.7625 71.4738 69.1417 71.7945 75.1665 73.4314C80.145 74.7815 84.1109 76.3004 84.5328 75.5747C84.9209 74.9165 81.2925 72.1151 75.9259 70.6469H75.909Z" fill="#5DA279" style="user-select: auto !important;"></path>
                            <path d="M314.369 47.8478C307.889 58.1085 303.265 69.5506 300.767 81.4314C299.755 86.3592 299.383 90.9158 299.383 94.2066C299.417 97.4975 299.738 99.5226 300.126 99.5395C300.531 99.5395 300.936 97.5481 301.408 94.3754C301.915 91.1858 302.607 86.8149 303.585 82.0389C305.999 70.4957 310.505 59.3743 316.799 49.4005C319.432 45.2827 321.98 41.6712 323.82 39.0217C325.693 36.4058 326.79 34.6845 326.486 34.4144C326.2 34.1613 324.563 35.3932 322.25 37.7222C319.955 40.0848 317.069 43.6288 314.352 47.8647L314.369 47.8478Z" fill="#5DA279" style="user-select: auto !important;"></path>
                            <path d="M320.073 32.8442C312.31 31.1734 305.897 23.866 306.066 15.9342C306.235 8.00245 313.644 0.897612 321.559 1.45452C332.697 2.23083 332.275 16.6937 332.275 16.6937C334.114 8.91378 345.101 0.458832 354.535 8.62689C364.981 17.6894 358.72 30.279 349.792 31.1059C349.792 31.1059 359.699 38.042 358.619 44.3199C357.539 50.5979 353.134 54.7325 346.805 55.5088C335.329 56.9096 327.769 47.7965 328.613 36.27" fill="#FFC8E1" style="user-select: auto !important;"></path>
                            <path d="M332.528 52.185C334.603 54.2945 337.27 55.8134 340.139 56.539C343.024 57.2647 345.961 57.231 348.847 56.5897C351.716 55.9484 354.5 54.4464 356.509 52.1681C358.517 49.873 359.715 47.0884 360.103 44.0676C360.356 41.2155 359.074 38.9541 357.892 37.3002C356.66 35.6126 355.327 34.3638 354.146 33.4018C351.783 31.4948 350.028 30.7692 349.809 31.0898C349.572 31.4273 350.855 32.7099 352.728 34.8701C353.656 35.9501 354.737 37.2496 355.682 38.7684C356.627 40.2704 357.42 42.0931 357.234 43.7638C356.947 46.0759 355.935 48.4891 354.365 50.2443C352.779 52.0331 350.585 53.2313 348.205 53.7714C345.826 54.2945 343.21 54.3283 340.864 53.7207C338.485 53.1301 336.325 51.8813 334.603 50.143C333.186 48.7085 332.122 47.0378 331.346 45.4177C330.604 43.7807 330.114 42.1943 329.81 40.8273C329.203 38.0934 329.102 36.2539 328.646 36.237C328.308 36.2033 327.667 38.009 327.785 41.1143C327.853 42.65 328.173 44.4895 328.899 46.4471C329.659 48.3879 330.84 50.4299 332.561 52.1681L332.528 52.185Z" fill="#5DA279" style="user-select: auto !important;"></path>
                            <path d="M361.099 22.1791C361.673 19.5464 361.403 16.7281 360.407 14.2642C359.395 11.8003 357.809 9.6064 355.885 7.90191C353.961 6.16366 351.615 4.72919 348.949 4.1554C346.299 3.56473 343.481 3.90223 341.034 4.9148C338.992 5.72485 337.27 6.95683 335.971 8.30692C334.638 9.62326 333.693 11.024 333.102 12.2897C331.87 14.838 331.971 16.6437 332.309 16.6944C332.731 16.7956 333.338 15.2936 334.84 13.3529C335.583 12.3741 336.561 11.2771 337.777 10.2646C338.975 9.21824 340.46 8.25627 342.114 7.5981C344.105 6.78804 346.282 6.53492 348.341 6.99058C350.4 7.42936 352.307 8.57693 353.944 10.0452C355.632 11.5303 356.914 13.3529 357.741 15.3274C358.551 17.3188 358.754 19.4958 358.298 21.5716C357.944 23.2929 357.218 24.8455 356.273 26.0775C355.361 27.3095 354.332 28.3052 353.336 28.9465C351.362 30.2966 349.775 30.651 349.809 31.1066C349.809 31.4273 351.615 31.8492 354.298 30.7353C355.632 30.1953 357.066 29.1827 358.332 27.7482C359.614 26.3306 360.644 24.3899 361.099 22.196V22.1791Z" fill="#5DA279" style="user-select: auto !important;"></path>
                            <path d="M325.727 0.982133C322.706 -0.249826 319.398 -0.283582 316.428 0.661482C313.441 1.57279 310.809 3.39544 308.767 5.69059C306.758 8.0195 305.307 10.8715 304.817 13.9767C304.345 17.082 304.868 20.2547 306.117 23.0561C308.176 27.7646 312.007 30.7348 314.96 32.0005C317.947 33.3506 320.04 33.1818 320.074 32.8612C320.175 32.4224 318.352 31.8486 315.939 30.2116C313.526 28.6422 310.488 25.8407 308.75 21.8917C307.686 19.5459 307.281 16.8963 307.653 14.4155C308.041 11.9179 309.222 9.53831 310.91 7.59756C312.631 5.67368 314.825 4.1717 317.255 3.42914C319.652 2.65284 322.335 2.73723 324.563 3.64854C326.402 4.42485 327.769 5.85934 328.748 7.41194C329.727 8.96455 330.317 10.6015 330.756 12.0023C331.617 14.8206 331.87 16.7107 332.275 16.7276C332.663 16.7276 333.136 14.7868 332.748 11.5804C332.545 9.994 332.106 8.07012 331.043 6.09561C330.014 4.13797 328.225 2.07906 325.71 1.01587L325.727 0.982133Z" fill="#5DA279" style="user-select: auto !important;"></path>
                            <path d="M341.928 26.8362C341.557 24.6423 340.409 22.5665 338.586 21.1489C336.781 19.765 334.536 19.1575 332.376 19.1913C330.57 19.2081 329.018 19.8494 328.089 20.5413C327.161 21.2501 326.824 21.942 327.043 22.2627C327.532 22.9209 329.743 22.0602 332.41 22.0771C334.03 22.0602 335.616 22.5159 336.831 23.444C338.013 24.3385 338.84 25.7898 339.093 27.3255C339.616 29.8738 338.688 31.8821 339.278 32.4559C339.565 32.6922 340.325 32.4222 341.05 31.4096C341.776 30.4308 342.248 28.6757 341.928 26.8362Z" fill="#5DA279" style="user-select: auto !important;"></path>
                            <path d="M1563.7 45.501C1567.74 55.2892 1570 65.803 1570.35 76.3843C1570.47 80.7721 1570.44 84.7381 1570.42 87.6408C1570.39 90.5266 1570.46 92.3661 1570.88 92.4336C1571.25 92.5011 1571.89 90.746 1572.46 87.8433C1573 84.9237 1573.37 80.8228 1573.26 76.3C1572.89 65.3811 1570.56 54.5297 1566.39 44.4209C1564.63 40.2356 1562.61 36.6579 1560.92 34.2277C1559.2 31.8144 1557.92 30.4812 1557.6 30.6837C1557.26 30.9031 1557.93 32.6076 1559.16 35.2403C1560.36 37.8729 1562.05 41.4676 1563.74 45.5178L1563.7 45.501Z" fill="#5DA279" style="user-select: auto !important;"></path>
                            <path d="M1563.5 30.2971C1570.62 30.0102 1577.44 24.5254 1578.52 17.4881C1579.6 10.4338 1574.13 3.00836 1567.03 2.26581C1557.04 1.21949 1555.18 14.096 1555.18 14.096C1554.76 6.92359 1546.34 -2.25702 1536.72 3.51463C1526.07 9.92756 1529.67 22.0446 1537.45 24.1541C1537.45 24.1541 1527.59 28.7613 1527.59 34.4992C1527.59 40.2371 1530.85 44.5743 1536.31 46.2282C1546.25 49.2321 1554.37 42.3298 1555.4 32.0016" fill="#FFC8E1" style="user-select: auto !important;"></path>
                            <path d="M1547.89 43.2733C1546.12 44.539 1544.03 45.2984 1541.87 45.4503C1539.71 45.6191 1537.43 45.1971 1535.42 44.3702C1533.41 43.5264 1531.69 42.1426 1530.58 40.3537C1529.46 38.5817 1528.96 36.3203 1529.06 34.2614C1529.14 32.8101 1530.1 31.3419 1531.15 30.1605C1532.21 28.9623 1533.34 27.9666 1534.32 27.1566C1536.3 25.5196 1537.61 24.5407 1537.45 24.1695C1537.28 23.8151 1535.61 24.1695 1533.19 25.469C1531.99 26.1271 1530.61 27.0215 1529.24 28.3379C1527.93 29.6205 1526.41 31.4431 1526.19 34.0757C1526.05 36.8434 1526.7 39.5268 1528.15 41.8894C1529.6 44.2352 1531.84 46.0241 1534.31 47.0367C1536.77 48.0492 1539.4 48.5386 1542.09 48.3361C1544.75 48.1505 1547.39 47.1885 1549.56 45.6359C1551.37 44.3365 1552.75 42.6995 1553.71 41.0794C1554.66 39.4424 1555.22 37.8392 1555.5 36.4891C1556.06 33.7551 1555.74 32.0337 1555.4 32.0169C1554.96 31.9662 1554.54 33.5695 1553.56 35.8815C1553.07 37.0291 1552.4 38.3454 1551.49 39.6618C1550.54 40.9612 1549.36 42.2438 1547.91 43.2902L1547.89 43.2733Z" fill="#5DA279" style="user-select: auto !important;"></path>
                            <path d="M1531.56 14.4159C1531.35 10.6019 1533.75 7.07481 1537.13 4.99905C1538.8 3.95273 1540.62 3.2439 1542.49 3.17639C1544.35 3.09201 1546.2 3.63206 1547.84 4.6615C1549.19 5.48844 1550.34 6.55162 1551.25 7.64856C1552.18 8.72864 1552.87 9.82562 1553.39 10.7876C1554.44 12.7114 1554.78 14.129 1555.22 14.0953C1555.57 14.0953 1555.98 12.5089 1555.3 10.0281C1554.96 8.79615 1554.36 7.39542 1553.38 6.01158C1552.43 4.61086 1551.1 3.24392 1549.39 2.1976C1547.35 0.915013 1544.89 0.172454 1542.41 0.290587C1539.93 0.391844 1537.6 1.32004 1535.62 2.56888C1533.63 3.78396 1531.88 5.48842 1530.58 7.54731C1529.29 9.6062 1528.6 12.087 1528.72 14.5341C1528.84 18.6687 1531.32 21.9089 1533.51 23.2253C1535.76 24.626 1537.45 24.491 1537.5 24.1703C1537.61 23.7316 1536.26 23.1409 1534.78 21.6389C1533.29 20.1876 1531.69 17.5549 1531.61 14.4159H1531.56Z" fill="#5DA279" style="user-select: auto !important;"></path>
                            <path d="M1564.06 3.85156C1566.14 3.41278 1568.48 3.73346 1570.47 4.77978C1572.48 5.79235 1574.19 7.46307 1575.38 9.40383C1576.56 11.3615 1577.24 13.6229 1577.21 15.8674C1577.16 18.0951 1576.4 20.3396 1575.11 22.2466C1572.99 25.4531 1569.92 27.4613 1567.55 28.4908C1565.19 29.5877 1563.49 29.8409 1563.5 30.2965C1563.5 30.634 1565.33 31.1403 1568.19 30.4315C1571.03 29.7902 1574.91 27.7313 1577.49 23.8498C1579.05 21.5547 1580.01 18.787 1580.08 15.9349C1580.13 13.0828 1579.28 10.2983 1577.85 7.91872C1576.38 5.55606 1574.32 3.51405 1571.79 2.23147C1569.27 0.932002 1566.3 0.44259 1563.4 1.06701C1560.97 1.62392 1559.03 3.19344 1557.83 4.79667C1556.58 6.39991 1555.91 8.05377 1555.49 9.43762C1554.66 12.2391 1554.83 14.0616 1555.2 14.0954C1555.6 14.1629 1556.16 12.5428 1557.38 10.197C1558.56 7.91873 1560.62 4.67851 1564.09 3.86846L1564.06 3.85156Z" fill="#5DA279" style="user-select: auto !important;"></path>
                            <path d="M1547.66 22.5162C1548.11 21.2336 1549.04 20.1028 1550.19 19.5122C1551.37 18.8878 1552.82 18.7359 1554.22 18.989C1556.53 19.3772 1558.37 20.4066 1558.98 19.8497C1559.25 19.5797 1559.08 18.8709 1558.37 18.0777C1557.66 17.2846 1556.38 16.4576 1554.76 16.1538C1552.82 15.7826 1550.71 15.9851 1548.87 16.947C1547 17.9258 1545.65 19.6303 1544.96 21.5373C1544.38 23.1406 1544.55 24.7944 1545.07 25.7901C1545.58 26.8027 1546.25 27.1571 1546.58 26.9546C1547.25 26.4989 1546.83 24.5919 1547.67 22.4993L1547.66 22.5162Z" fill="#5DA279" style="user-select: auto !important;"></path>
                            <path d="M562.585 87.4389C557.91 97.379 555.041 108.163 554.13 119.115C553.775 123.655 553.961 127.79 554.349 130.743C554.771 133.696 555.328 135.468 555.699 135.435C556.104 135.384 556.273 133.561 556.374 130.642C556.509 127.722 556.644 123.74 556.982 119.352C557.859 108.754 560.644 98.2903 565.167 88.6709C567.057 84.6881 568.93 81.161 570.263 78.5789C571.63 76.0137 572.39 74.3262 572.052 74.0899C571.748 73.8705 570.381 75.1362 568.542 77.482C566.719 79.8446 564.508 83.338 562.551 87.4558L562.585 87.4389Z" fill="#5DA279" style="user-select: auto !important;"></path>
                            <path d="M566.162 73.4146C559.023 72.7733 552.459 66.9511 551.716 59.8125C550.973 52.6739 556.829 45.4846 563.985 45.0965C574.06 44.5395 575.292 57.568 575.292 57.568C576.068 50.3787 584.979 41.5862 594.345 47.8473C604.724 54.8003 600.522 66.7992 592.607 68.5375C592.607 68.5375 602.26 73.6509 602.007 79.4057C601.754 85.1605 598.244 89.3626 592.674 90.7633C582.549 93.2948 574.735 85.9705 574.212 75.5411" fill="#FFC8E1" style="user-select: auto !important;"></path>
                            <path d="M579.393 89.4823C581.503 91.1531 584.102 92.2331 586.768 92.5706C589.451 92.9082 592.118 92.5369 594.649 91.6425C597.181 90.7312 599.526 89.0604 601.079 86.7652C602.648 84.4532 603.408 81.8037 603.425 79.0191C603.323 76.3695 601.906 74.4794 600.64 73.1124C599.324 71.7286 597.991 70.7666 596.809 70.041C594.463 68.6234 592.793 68.1846 592.607 68.5221C592.421 68.8765 593.687 69.9229 595.594 71.6611C596.539 72.5387 597.636 73.585 598.632 74.8338C599.628 76.0658 600.522 77.5847 600.539 79.0529C600.539 81.1287 599.914 83.3732 598.716 85.0945C597.518 86.8496 595.712 88.1491 593.653 88.8917C591.595 89.6173 589.282 89.938 587.122 89.6679C584.945 89.3979 582.886 88.5372 581.182 87.1872C579.764 86.0733 578.634 84.7064 577.756 83.3563C576.912 81.9893 576.288 80.6392 575.849 79.4579C574.972 77.0952 574.634 75.4751 574.195 75.492C573.841 75.492 573.436 77.1965 573.875 79.9811C574.094 81.3649 574.583 82.985 575.444 84.6726C576.338 86.3434 577.638 88.0479 579.393 89.4317V89.4823Z" fill="#5DA279" style="user-select: auto !important;"></path>
                            <path d="M601.872 59.2898C602.108 56.8428 601.534 54.3113 600.353 52.1849C599.155 50.0586 597.484 48.2697 595.543 46.9533C593.602 45.6032 591.324 44.5569 588.843 44.3375C586.362 44.1013 583.848 44.7257 581.738 45.907C579.966 46.8858 578.566 48.1853 577.553 49.5523C576.507 50.8855 575.815 52.2693 575.427 53.4844C574.617 55.9314 574.954 57.5516 575.309 57.5684C575.747 57.6022 576.152 56.2183 577.283 54.3282C577.84 53.3831 578.599 52.3031 579.578 51.2736C580.54 50.2104 581.738 49.1979 583.139 48.4384C584.81 47.4934 586.717 47.0377 588.573 47.2234C590.446 47.3921 592.252 48.1853 593.872 49.316C597.163 51.5774 599.391 55.2227 599.003 59.0536C598.766 62.2094 597.028 64.7577 595.459 66.1415C593.872 67.576 592.505 68.1161 592.607 68.5548C592.64 68.8755 594.328 69.0949 596.657 67.7954C598.918 66.5803 601.568 63.4413 601.889 59.3067L601.872 59.2898Z" fill="#5DA279" style="user-select: auto !important;"></path>
                            <path d="M567.698 44.0848C564.812 43.3085 561.808 43.6629 559.226 44.8442C556.61 46.0087 554.45 47.9494 552.864 50.2615C551.311 52.5904 550.315 55.3412 550.231 58.2102C550.163 61.0791 550.974 63.8974 552.442 66.277C554.838 70.2935 558.635 72.5549 561.454 73.3312C564.306 74.1919 566.179 73.77 566.179 73.4325C566.213 72.9768 564.525 72.6561 562.213 71.4242C559.901 70.2766 556.897 68.0996 554.923 64.775C553.724 62.8005 553.066 60.5053 553.134 58.2776C553.201 56.0162 553.994 53.7886 555.277 51.8647C556.576 49.9746 558.365 48.3883 560.441 47.4601C562.483 46.515 564.863 46.2956 566.921 46.8356C570.364 47.8313 572.271 51.1897 573.351 53.5355C574.448 55.9487 574.938 57.6026 575.343 57.5689C575.731 57.5351 575.967 55.7125 575.275 52.8773C574.921 51.4597 574.313 49.7721 573.149 48.1013C572.001 46.4475 570.145 44.7768 567.732 44.0848H567.698Z" fill="#5DA279" style="user-select: auto !important;"></path>
                            <path d="M585.215 65.5519C584.625 63.5942 583.359 61.8222 581.52 60.7422C579.714 59.6958 577.604 59.392 575.647 59.6621C574.01 59.8814 572.677 60.6577 571.917 61.4003C571.158 62.1597 570.955 62.8516 571.225 63.1385C571.799 63.7292 573.689 62.7841 576.035 62.4972C577.452 62.2947 578.904 62.531 580.068 63.2229C581.199 63.8811 582.077 65.0624 582.465 66.3619C583.19 68.522 582.684 70.3953 583.342 70.9016C583.663 71.1041 584.355 70.8003 584.912 69.8046C585.486 68.8258 585.739 67.172 585.232 65.535L585.215 65.5519Z" fill="#5DA279" style="user-select: auto !important;"></path>
                            <path d="M409.854 58.7331C411.086 64.2178 411.559 69.8882 411.525 75.5586C411.525 80.2502 411.711 84.0979 412.487 84.1992C413.28 84.3004 414.377 80.4358 414.394 75.5754C414.428 69.7194 413.938 63.8465 412.639 58.0749C411.559 53.2483 409.247 49.8393 408.555 50.1937C407.812 50.565 408.825 54.1934 409.82 58.7162L409.854 58.7331Z" fill="#5DA279" style="user-select: auto !important;"></path>
                            <path d="M412.909 50.5986C418.09 51.1893 423.608 47.9997 425.195 43.0381C426.781 38.0765 423.659 32.0855 418.613 30.7691C411.525 28.8959 408.74 37.9752 408.74 37.9752C409.247 32.7436 404.201 25.1831 396.606 28.2715C388.202 31.6973 389.434 40.8442 394.801 43.2406C394.801 43.2406 387.173 45.4683 386.515 49.586C385.856 53.7207 387.73 57.2141 391.493 59.0367C398.328 62.3275 404.96 58.2604 406.867 50.9193" fill="#FFF0A0" style="user-select: auto !important;"></path>
                            <path d="M400.016 57.8552C397.315 59.256 393.923 58.9016 391.274 57.2646C389.974 56.4714 388.945 55.3407 388.388 53.9906C387.814 52.6743 387.713 51.0373 388 49.6534C388.185 48.7759 388.962 47.8646 389.806 47.1389C390.666 46.3964 391.561 45.8057 392.337 45.2825C393.89 44.27 394.919 43.6118 394.801 43.2236C394.7 42.8524 393.4 42.8186 391.476 43.4261C390.514 43.7468 389.384 44.2193 388.202 45.0125C387.072 45.8057 385.688 46.9701 385.198 48.9952C384.776 51.071 384.928 53.1299 385.738 55.0876C386.548 57.0283 388.034 58.6316 389.755 59.6779C391.476 60.7242 393.366 61.3824 395.392 61.5511C397.417 61.7199 399.492 61.3149 401.298 60.4035C402.8 59.6441 404.015 58.5809 404.893 57.484C405.77 56.3701 406.344 55.2395 406.682 54.2607C407.357 52.2861 407.222 50.9866 406.867 50.9023C406.445 50.801 405.872 51.8642 404.859 53.3493C403.847 54.8176 402.277 56.7077 399.999 57.8384L400.016 57.8552Z" fill="#5DA279" style="user-select: auto !important;"></path>
                            <path d="M392.033 35.5786C392.303 32.9628 394.294 30.8196 396.876 29.7226C398.142 29.1826 399.475 28.8957 400.758 29.0476C402.023 29.1826 403.239 29.7564 404.234 30.617C405.922 32.0515 406.951 33.9923 407.525 35.4268C408.116 36.8781 408.301 37.9076 408.74 37.9582C409.095 38.0257 409.668 36.895 409.517 34.9711C409.381 33.0978 408.436 30.4314 406.124 28.4232C404.757 27.225 402.969 26.3642 401.095 26.1617C399.222 25.9423 397.366 26.3642 395.746 27.073C394.125 27.7481 392.623 28.8113 391.408 30.1951C390.21 31.579 389.4 33.3679 389.198 35.2243C388.793 38.3463 390.328 41.0634 391.864 42.2616C393.434 43.5273 394.733 43.5273 394.834 43.2066C395.003 42.8016 394.159 42.1434 393.349 40.8777C392.539 39.6626 391.78 37.6881 392.05 35.5449L392.033 35.5786Z" fill="#5DA279" style="user-select: auto !important;"></path>
                            <path d="M416.335 31.9668C417.769 31.8824 419.339 32.3549 420.588 33.2831C421.853 34.1944 422.849 35.5277 423.49 36.9959C424.098 38.481 424.317 40.118 424.047 41.6537C423.777 43.1726 423.018 44.6408 421.921 45.8221C420.115 47.8135 417.769 48.9273 415.997 49.4674C414.225 50.058 412.976 50.1424 412.926 50.5812C412.858 50.9356 414.124 51.5938 416.352 51.4756C418.529 51.3912 421.668 50.3618 424.047 47.7629C425.482 46.2272 426.511 44.2864 426.899 42.1431C427.271 40.0167 426.967 37.8397 426.174 35.8821C425.347 33.9413 424.047 32.1862 422.309 30.9374C420.571 29.6717 418.411 28.946 416.132 29.081C414.208 29.216 412.571 30.1948 411.491 31.258C410.378 32.3381 409.719 33.4857 409.281 34.4814C408.42 36.4728 408.42 37.8397 408.791 37.9579C409.179 38.076 409.854 37.0128 411.036 35.5277C412.183 34.0595 414.006 32.1187 416.385 31.9499L416.335 31.9668Z" fill="#5DA279" style="user-select: auto !important;"></path>
                            <path d="M402.699 43.3925C403.121 42.5994 403.864 41.9581 404.64 41.688C405.467 41.4011 406.446 41.4349 407.357 41.7724C408.842 42.2618 410.142 43.0044 410.817 42.5656C411.12 42.3293 411.171 41.7387 410.766 41.013C410.378 40.2873 409.517 39.4773 408.319 39.0554C406.901 38.5491 405.248 38.4478 403.729 38.971C402.159 39.511 400.927 40.6417 400.168 42.0256C399.527 43.19 399.51 44.4895 399.847 45.3164C400.185 46.1433 400.725 46.4471 401.079 46.3121C401.467 46.1602 401.653 45.6877 401.872 45.1814C402.092 44.6583 402.345 44.0676 402.699 43.4094V43.3925Z" fill="#5DA279" style="user-select: auto !important;"></path>
                            <path d="M1608.33 51.206C1607.03 56.9776 1606.56 62.8505 1606.58 68.7065C1606.58 73.5669 1607.69 77.4315 1608.48 77.3302C1609.26 77.229 1609.46 73.3981 1609.44 68.6897C1609.41 63.0193 1609.88 57.332 1611.11 51.8641C1612.13 47.3413 1613.14 43.6961 1612.38 43.3417C1611.71 42.9873 1609.38 46.3962 1608.3 51.2228L1608.33 51.206Z" fill="#5DA279" style="user-select: auto !important;"></path>
                            <path d="M1608.08 43.7134C1602.9 44.304 1597.38 41.1144 1595.79 36.1528C1594.21 31.1912 1597.33 25.2002 1602.37 23.8839C1609.46 22.0106 1612.25 31.09 1612.25 31.09C1611.74 25.8584 1616.79 18.2979 1624.38 21.3862C1632.78 24.8121 1631.55 33.9589 1626.19 36.3553C1626.19 36.3553 1633.81 38.583 1634.47 42.7008C1635.13 46.8354 1633.26 50.3288 1629.49 52.1514C1622.66 55.4423 1616.03 51.3751 1614.12 44.034" fill="#FFF0A0" style="user-select: auto !important;"></path>
                            <path d="M1619.69 53.551C1621.49 54.4623 1623.59 54.8673 1625.6 54.6986C1627.64 54.5298 1629.51 53.8717 1631.23 52.8253C1632.95 51.779 1634.44 50.1758 1635.25 48.235C1636.06 46.2774 1636.21 44.2185 1635.79 42.1427C1635.28 40.1176 1633.92 38.9363 1632.78 38.16C1631.6 37.3668 1630.47 36.8942 1629.51 36.5736C1627.57 35.9661 1626.29 35.9998 1626.19 36.3711C1626.07 36.7592 1627.1 37.4005 1628.65 38.43C1629.43 38.9363 1630.32 39.5438 1631.18 40.2864C1632.04 41.012 1632.82 41.9233 1632.99 42.8009C1633.27 44.1847 1633.17 45.8217 1632.6 47.1381C1632.03 48.4882 1631.01 49.602 1629.71 50.4121C1627.06 52.0659 1623.67 52.4203 1620.97 51.0027C1618.71 49.872 1617.14 47.9819 1616.11 46.5136C1615.1 45.0285 1614.52 43.9485 1614.1 44.0497C1613.75 44.1341 1613.61 45.4336 1614.29 47.4081C1614.63 48.3869 1615.2 49.5176 1616.08 50.6314C1616.97 51.7284 1618.17 52.8085 1619.67 53.551H1619.69Z" fill="#5DA279" style="user-select: auto !important;"></path>
                            <path d="M1631.82 28.3723C1631.62 26.5159 1630.81 24.7271 1629.61 23.3432C1628.41 21.9594 1626.89 20.8793 1625.27 20.2211C1623.65 19.5292 1621.8 19.0904 1619.92 19.3098C1618.05 19.5123 1616.26 20.373 1614.9 21.5712C1612.58 23.5795 1611.64 26.2459 1611.49 28.1192C1611.33 30.043 1611.91 31.1569 1612.26 31.1063C1612.68 31.0556 1612.87 30.0093 1613.46 28.5749C1614.03 27.1404 1615.06 25.1996 1616.75 23.7651C1617.76 22.8876 1618.96 22.3307 1620.23 22.1957C1621.49 22.0438 1622.83 22.3307 1624.09 22.8707C1626.69 23.9677 1628.67 26.1109 1628.94 28.7267C1629.22 30.87 1628.46 32.8445 1627.64 34.0596C1626.83 35.3084 1625.98 35.9834 1626.15 36.3885C1626.27 36.7091 1627.57 36.7091 1629.12 35.4434C1630.66 34.2452 1632.18 31.5282 1631.79 28.3892L1631.82 28.3723Z" fill="#5DA279" style="user-select: auto !important;"></path>
                            <path d="M1604.91 22.2123C1602.63 22.0773 1600.47 22.803 1598.71 24.0687C1596.96 25.3344 1595.66 27.0895 1594.85 29.0134C1594.05 30.9711 1593.73 33.1312 1594.12 35.2745C1594.51 37.4178 1595.54 39.3585 1596.97 40.8942C1599.35 43.4932 1602.49 44.5226 1604.67 44.607C1606.9 44.7252 1608.16 44.067 1608.09 43.7126C1608.04 43.2738 1606.8 43.1894 1605.02 42.5988C1603.27 42.0587 1600.92 40.9449 1599.1 38.9535C1598 37.7722 1597.24 36.3039 1596.97 34.7851C1596.7 33.2494 1596.92 31.6124 1597.53 30.1273C1598.15 28.659 1599.15 27.3258 1600.43 26.4145C1601.68 25.4863 1603.27 25.0138 1604.69 25.0982C1607.07 25.267 1608.89 27.2077 1610.04 28.6759C1611.22 30.161 1611.89 31.2242 1612.28 31.1061C1612.65 30.988 1612.65 29.621 1611.79 27.6296C1611.35 26.6339 1610.68 25.4863 1609.58 24.4063C1608.5 23.3431 1606.85 22.3642 1604.94 22.2292L1604.91 22.2123Z" fill="#5DA279" style="user-select: auto !important;"></path>
                            <path d="M1620.84 35.1229C1620.08 33.739 1618.84 32.5914 1617.28 32.0683C1615.74 31.5451 1614.1 31.6632 1612.68 32.1695C1611.49 32.5914 1610.63 33.4015 1610.24 34.1272C1609.83 34.8528 1609.87 35.4435 1610.19 35.6798C1610.86 36.1186 1612.16 35.3929 1613.65 34.8866C1614.56 34.566 1615.54 34.5322 1616.36 34.8023C1617.16 35.0554 1617.88 35.7135 1618.3 36.5067C1618.66 37.1649 1618.91 37.7556 1619.13 38.2787C1619.35 38.785 1619.55 39.2744 1619.92 39.4094C1620.28 39.5444 1620.82 39.2407 1621.16 38.4137C1621.49 37.6037 1621.46 36.2873 1620.82 35.1229H1620.84Z" fill="#5DA279" style="user-select: auto !important;"></path>
                            <path d="M99.7213 56.32C100.953 61.8048 101.426 67.4752 101.392 73.1456C101.392 77.8371 101.578 81.6849 102.354 81.7861C103.147 81.8874 104.244 78.0227 104.261 73.1624C104.295 67.3064 103.805 61.4335 102.506 55.6618C101.426 50.8353 99.1138 47.4263 98.4219 47.7807C97.6793 48.1519 98.6919 51.7803 99.6876 56.3031L99.7213 56.32Z" fill="#5DA279" style="user-select: auto !important;"></path>
                            <path d="M102.776 48.1855C107.957 48.7762 113.476 45.5866 115.062 40.625C116.631 35.6634 113.526 29.6724 108.48 28.3561C101.392 26.4828 98.6076 35.5622 98.6076 35.5622C99.1139 30.3305 94.0679 22.77 86.4737 25.8584C78.0694 29.2842 79.3013 38.4311 84.6679 40.8275C84.6679 40.8275 77.0399 43.0552 76.3817 47.173C75.7236 51.3076 77.5968 54.801 81.3602 56.6236C88.1951 59.9145 94.8274 55.8473 96.7344 48.5062" fill="#FFF0A0" style="user-select: auto !important;"></path>
                            <path d="M89.8828 55.4421C87.1826 56.8429 83.7905 56.4885 81.141 54.8515C79.8415 54.0583 78.8121 52.9276 78.2551 51.5775C77.6814 50.2612 77.5801 48.6242 77.867 47.2404C78.0526 46.3628 78.8289 45.4515 79.6727 44.7258C80.5334 43.9832 81.4279 43.3757 82.2042 42.8694C83.7568 41.8569 84.7862 41.1987 84.6681 40.8105C84.5668 40.4393 83.2674 40.4055 81.3435 41.0131C80.3815 41.3337 79.2508 41.8062 78.0695 42.5994C76.9388 43.3926 75.555 44.557 75.0656 46.5822C74.6436 48.6579 74.7955 50.7168 75.6056 52.6745C76.4156 54.6152 77.9007 56.2185 79.6221 57.2648C81.3435 58.3111 83.2336 58.9693 85.2587 59.138C87.2839 59.3068 89.3597 58.9018 91.1654 57.9905C92.6674 57.231 93.8825 56.1678 94.76 55.0709C95.6376 53.957 96.2114 52.8263 96.5489 51.8475C97.2239 49.873 97.0889 48.5736 96.7345 48.4892C96.3126 48.3879 95.7388 49.4511 94.7263 50.9362C93.7137 52.4045 92.1442 54.2946 89.8659 55.4253L89.8828 55.4421Z" fill="#5DA279" style="user-select: auto !important;"></path>
                            <path d="M81.9 33.1656C82.17 30.5498 84.1614 28.4065 86.7435 27.3095C88.0092 26.7695 89.3424 26.4826 90.625 26.6344C91.8907 26.7694 93.1058 27.3433 94.1015 28.204C95.7891 29.6384 96.8185 31.5792 97.3923 33.0136C97.983 34.465 98.1686 35.4944 98.6074 35.545C98.9618 35.6126 99.5356 34.4819 99.3837 32.558C99.2487 30.6847 98.3036 28.0183 95.9916 26.01C94.6246 24.8118 92.8358 23.9511 90.9625 23.7486C89.0893 23.5292 87.2329 23.9512 85.6128 24.66C83.9927 25.335 82.4907 26.3982 81.2756 27.7821C80.0774 29.1659 79.2673 30.9547 79.0648 32.8111C78.6598 35.9332 80.1955 38.6503 81.7313 39.8485C83.3007 41.1142 84.6002 41.1142 84.7015 40.7936C84.8702 40.3885 84.0264 39.7304 83.2163 38.4646C82.4063 37.2496 81.6469 35.275 81.9169 33.1318L81.9 33.1656Z" fill="#5DA279" style="user-select: auto !important;"></path>
                            <path d="M106.185 29.5537C107.62 29.4693 109.189 29.9419 110.438 30.87C111.704 31.7814 112.7 33.1146 113.341 34.5828C113.948 36.0679 114.168 37.7049 113.898 39.2406C113.628 40.7595 112.868 42.2277 111.771 43.409C109.966 45.4004 107.62 46.5142 105.848 47.0543C104.076 47.6449 102.827 47.7293 102.776 48.1681C102.709 48.5225 103.975 49.1807 106.202 49.0625C108.379 48.9782 111.518 47.9487 113.898 45.3498C115.332 43.8141 116.362 41.8733 116.75 39.73C117.121 37.6036 116.817 35.4266 116.024 33.469C115.197 31.5282 113.898 29.7731 112.16 28.5243C110.421 27.2586 108.261 26.5329 105.983 26.6679C104.059 26.8029 102.422 27.7817 101.342 28.8449C100.228 29.925 99.57 31.0725 99.1312 32.0682C98.2705 34.0596 98.2705 35.4266 98.6418 35.5447C99.0299 35.6629 99.705 34.5997 100.886 33.1146C102.034 31.6464 103.857 29.7056 106.236 29.5368L106.185 29.5537Z" fill="#5DA279" style="user-select: auto !important;"></path>
                            <path d="M92.5489 40.9629C92.9708 40.1697 93.7134 39.5284 94.4897 39.2584C95.3166 38.9715 96.2954 39.0052 97.2067 39.3427C98.6918 39.8321 99.9913 40.5747 100.666 40.1359C100.97 39.8996 101.021 39.309 100.616 38.5833C100.228 37.8576 99.3669 37.0476 98.1687 36.6257C96.7511 36.1194 95.0972 36.0182 93.5783 36.5413C92.0089 37.0814 90.7769 38.212 90.0175 39.5959C89.3762 40.7603 89.3593 42.0598 89.6968 42.8867C90.0343 43.7136 90.5744 44.0174 90.9288 43.8824C91.3169 43.7305 91.5026 43.258 91.722 42.7517C91.9414 42.2286 92.1945 41.6379 92.5489 40.9797V40.9629Z" fill="#5DA279" style="user-select: auto !important;"></path>
                            <path d="M359.041 102.053C362.838 103.369 367.546 101.884 369.554 98.4075C371.563 94.931 370.229 89.902 366.652 88.0625C361.623 85.4635 358.011 91.8427 358.011 91.8427C359.26 87.9949 356.729 81.447 350.484 82.5102C343.582 83.6915 342.974 90.7964 346.637 93.4966C346.637 93.4966 340.527 93.9016 339.346 96.9056C338.165 99.9095 338.992 102.863 341.523 104.854C346.13 108.483 351.801 106.508 354.45 101.293" fill="white" style="user-select: auto !important;"></path>
                            <path d="M348.037 105.057C345.877 105.631 343.514 104.855 341.861 103.234C341.067 102.458 340.511 101.496 340.325 100.467C340.122 99.4542 340.325 98.256 340.73 97.3447C340.949 96.8384 341.607 96.2815 342.35 95.8764C343.076 95.4545 343.835 95.1339 344.493 94.8639C345.81 94.307 346.67 93.902 346.637 93.4969C346.603 93.1088 345.641 92.7881 344.038 92.8725C343.244 92.9231 342.283 93.075 341.236 93.48C340.224 93.8851 338.907 94.5601 338.131 96.1127C337.439 97.6822 337.203 99.3023 337.507 100.99C337.81 102.661 338.705 104.18 339.869 105.293C341.034 106.407 342.384 107.234 343.936 107.724C345.489 108.196 347.193 108.247 348.763 107.842C351.413 107.184 353.151 105.344 353.944 103.926C354.754 102.475 354.788 101.446 354.467 101.277C354.096 101.091 353.404 101.766 352.374 102.644C351.328 103.521 349.877 104.601 348.071 105.04L348.037 105.057Z" fill="#5DA279" style="user-select: auto !important;"></path>
                            <path d="M346.13 87.3715C346.721 85.5826 348.442 84.3675 350.518 83.9794C352.543 83.5575 354.433 84.1481 355.581 85.7513C356.56 87.0339 357.032 88.6034 357.285 89.7341C357.555 90.8817 357.606 91.7086 358.011 91.8437C358.348 91.9787 359.057 91.2361 359.327 89.7341C359.597 88.2659 359.361 86.0045 357.893 84.03C357.032 82.8487 355.766 81.8698 354.315 81.3804C352.864 80.8741 351.345 80.8911 349.961 81.1611C348.594 81.3973 347.227 81.9711 346.046 82.8487C344.864 83.7263 343.902 84.992 343.43 86.4264C342.569 88.8228 343.329 91.2192 344.375 92.4005C345.421 93.6325 346.468 93.7844 346.653 93.4806C346.906 93.1431 346.451 92.4343 346.13 91.3711C345.809 90.3248 345.624 88.8228 346.147 87.3546L346.13 87.3715Z" fill="#5DA279" style="user-select: auto !important;"></path>
                            <path d="M364.677 88.9235C366.769 89.2273 368.575 91.3031 368.946 93.6489C369.402 96.0284 368.423 98.3573 366.415 99.7074C364.795 100.855 362.922 101.328 361.538 101.513C360.137 101.733 359.175 101.665 359.023 102.07C358.888 102.408 359.715 103.201 361.437 103.538C363.124 103.91 365.757 103.673 368.052 102.07C369.436 101.125 370.583 99.7749 371.258 98.1717C371.917 96.5684 372.052 94.8133 371.765 93.1594C371.208 89.8855 368.761 86.679 365.048 86.0883C363.495 85.8521 362.01 86.3583 360.998 87.0165C359.951 87.6747 359.26 88.4679 358.77 89.1767C357.808 90.5943 357.656 91.6743 357.994 91.8768C358.348 92.0793 359.091 91.4381 360.255 90.5774C361.403 89.7167 363.04 88.6872 364.677 88.9404V88.9235Z" fill="#5DA279" style="user-select: auto !important;"></path>
                            <path d="M1512.07 123.269C1515.87 124.585 1520.57 123.1 1522.58 119.623C1524.59 116.147 1523.26 111.118 1519.68 109.278C1514.65 106.679 1511.04 113.058 1511.04 113.058C1512.29 109.211 1509.76 102.663 1503.51 103.726C1496.61 104.907 1496 112.012 1499.67 114.712C1499.67 114.712 1493.56 115.117 1492.37 118.121C1491.19 121.125 1492.02 124.079 1494.55 126.07C1499.16 129.698 1504.83 127.724 1507.48 122.509" fill="white" style="user-select: auto !important;"></path>
                            <path d="M1501.07 126.272C1498.91 126.846 1496.54 126.07 1494.89 124.45C1494.1 123.673 1493.54 122.712 1493.35 121.682C1493.15 120.67 1493.35 119.471 1493.76 118.56C1493.98 118.054 1494.64 117.497 1495.38 117.092C1496.1 116.67 1496.86 116.349 1497.52 116.079C1498.84 115.522 1499.7 115.117 1499.67 114.712C1499.65 114.324 1498.67 114.003 1497.07 114.088C1496.27 114.138 1495.31 114.29 1494.27 114.678C1493.25 115.083 1491.94 115.759 1491.16 117.311C1490.47 118.881 1490.23 120.501 1490.54 122.188C1490.84 123.859 1491.73 125.378 1492.9 126.492C1494.06 127.606 1495.41 128.433 1496.97 128.922C1498.52 129.394 1500.22 129.445 1501.79 129.04C1504.44 128.365 1506.18 126.542 1506.97 125.125C1507.78 123.673 1507.82 122.627 1507.5 122.475C1507.12 122.29 1506.43 122.965 1505.39 123.842C1504.34 124.72 1502.89 125.8 1501.08 126.239L1501.07 126.272Z" fill="#5DA279" style="user-select: auto !important;"></path>
                            <path d="M1499.16 108.569C1499.75 106.78 1501.47 105.565 1503.55 105.177C1505.57 104.755 1507.46 105.345 1508.61 106.949C1509.59 108.231 1510.06 109.801 1510.31 110.931C1510.58 112.079 1510.63 112.906 1511.04 113.041C1511.38 113.176 1512.09 112.433 1512.36 110.931C1512.63 109.463 1512.39 107.202 1510.92 105.227C1510.06 104.046 1508.8 103.067 1507.34 102.578C1505.89 102.071 1504.37 102.088 1502.99 102.358C1501.62 102.595 1500.26 103.168 1499.07 104.046C1497.89 104.924 1496.93 106.189 1496.46 107.624C1495.6 110.02 1496.36 112.416 1497.4 113.598C1498.45 114.83 1499.5 114.982 1499.68 114.678C1499.94 114.34 1499.48 113.632 1499.16 112.568C1498.84 111.522 1498.65 110.02 1499.18 108.552L1499.16 108.569Z" fill="#5DA279" style="user-select: auto !important;"></path>
                            <path d="M1517.71 110.121C1519.8 110.425 1521.6 112.5 1521.98 114.846C1522.43 117.226 1521.45 119.555 1519.44 120.905C1517.82 122.052 1515.95 122.525 1514.57 122.71C1513.17 122.93 1512.2 122.862 1512.05 123.267C1511.92 123.605 1512.74 124.398 1514.47 124.736C1516.15 125.09 1518.79 124.871 1521.08 123.267C1522.47 122.322 1523.61 120.972 1524.29 119.369C1524.95 117.766 1525.08 116.011 1524.79 114.357C1524.24 111.083 1521.79 107.876 1518.08 107.286C1516.53 107.049 1515.04 107.556 1514.03 108.214C1512.98 108.872 1512.29 109.665 1511.8 110.374C1510.84 111.792 1510.69 112.888 1511.02 113.074C1511.38 113.277 1512.12 112.635 1513.28 111.775C1514.43 110.914 1516.07 109.885 1517.71 110.138V110.121Z" fill="#5DA279" style="user-select: auto !important;"></path>
                            <path d="M1505.83 116.332C1506.23 115.86 1506.82 115.539 1507.36 115.488C1507.95 115.421 1508.61 115.59 1509.18 115.961C1510.13 116.518 1511.07 117.142 1511.83 116.855C1512.19 116.704 1512.39 116.214 1512.24 115.539C1512.1 114.881 1511.58 114.054 1510.7 113.514C1509.66 112.856 1508.37 112.484 1507.04 112.636C1505.67 112.788 1504.48 113.48 1503.63 114.459C1502.92 115.269 1502.69 116.349 1502.85 117.058C1503.02 117.784 1503.46 118.104 1503.85 118.054C1504.26 117.986 1504.56 117.666 1504.88 117.362C1505.18 117.058 1505.49 116.737 1505.83 116.349V116.332Z" fill="#5DA279" style="user-select: auto !important;"></path>
                            <path d="M46.5788 113.648C49.684 116.196 54.6119 116.433 57.7002 113.867C60.7886 111.302 61.2611 106.121 58.5609 103.151C54.7469 98.9827 49.144 103.708 49.144 103.708C51.6417 100.518 51.5236 93.4979 45.3131 92.3503C38.4277 91.0677 35.4068 97.5313 37.9045 101.328C37.9045 101.328 32.0316 99.5902 29.8883 102.003C27.745 104.417 27.4919 107.471 29.1795 110.222C32.251 115.217 38.242 115.336 42.5454 111.37" fill="white" style="user-select: auto !important;"></path>
                            <path d="M35.2208 112.67C32.9932 112.467 31.0524 110.915 30.0567 108.822C29.5673 107.81 29.3986 106.73 29.5673 105.7C29.7361 104.688 30.3267 103.624 31.0187 102.899C31.4068 102.494 32.2169 102.207 33.0438 102.089C33.8707 101.954 34.6977 101.903 35.4065 101.869C36.8241 101.802 37.786 101.717 37.8873 101.329C38.0054 100.958 37.1953 100.317 35.6596 99.8441C34.9002 99.6078 33.9551 99.4222 32.8244 99.4391C31.7275 99.4728 30.2761 99.6415 28.9935 100.84C27.7953 102.072 27.019 103.523 26.7152 105.211C26.4284 106.881 26.7321 108.62 27.4409 110.071C28.1497 111.522 29.1117 112.771 30.4111 113.767C31.6937 114.746 33.2801 115.387 34.9002 115.556C37.6172 115.843 39.8955 114.729 41.1106 113.682C42.3763 112.602 42.7645 111.64 42.5113 111.37C42.2244 111.067 41.3469 111.455 40.0643 111.927C38.7817 112.4 37.0435 112.906 35.204 112.687L35.2208 112.67Z" fill="#5DA279" style="user-select: auto !important;"></path>
                            <path d="M39.5407 95.4048C40.722 93.9365 42.764 93.3797 44.8229 93.734C46.8649 94.0378 48.4344 95.2529 48.9576 97.143C49.4301 98.6787 49.3457 100.316 49.177 101.463C49.0251 102.628 48.8057 103.421 49.1263 103.691C49.3964 103.944 50.3245 103.488 51.1008 102.155C51.8603 100.856 52.4172 98.6788 51.7253 96.3161C51.3202 94.9154 50.4764 93.5484 49.2951 92.5865C48.1138 91.6077 46.6793 91.1014 45.2786 90.8651C43.9116 90.6289 42.4265 90.6795 41.0089 91.1014C39.5913 91.5233 38.2581 92.384 37.313 93.5484C35.676 95.5061 35.5579 98.0206 36.1317 99.4719C36.6886 100.991 37.6168 101.497 37.9037 101.278C38.2581 101.041 38.0725 100.214 38.14 99.1175C38.1906 98.0206 38.545 96.5524 39.5576 95.371L39.5407 95.4048Z" fill="#5DA279" style="user-select: auto !important;"></path>
                            <path d="M56.4178 103.285C58.2741 104.298 59.253 106.863 58.7973 109.192C58.3923 111.571 56.6709 113.428 54.3251 114.002C52.4012 114.508 50.4942 114.322 49.1273 114.002C47.7434 113.715 46.849 113.327 46.579 113.664C46.3427 113.934 46.8321 114.964 48.3341 115.892C49.7854 116.82 52.3337 117.512 55.0508 116.803C56.6709 116.381 58.2066 115.537 59.4049 114.255C60.5862 112.972 61.3119 111.369 61.6156 109.715C62.24 106.458 61.0418 102.593 57.7679 100.754C56.4009 99.9944 54.8314 99.9607 53.6501 100.214C52.435 100.467 51.5068 100.973 50.8149 101.463C49.4142 102.458 48.891 103.42 49.1441 103.724C49.3973 104.028 50.3255 103.69 51.7262 103.285C53.0932 102.88 55.0002 102.475 56.4346 103.285H56.4178Z" fill="#5DA279" style="user-select: auto !important;"></path>
                            <path d="M706.605 171.296C701.508 173.27 697.019 176.679 693.711 181.016C692.361 182.839 691.484 184.712 691.096 186.147C690.724 187.598 690.775 188.543 691.129 188.678C691.922 188.931 693.543 185.978 696.006 182.755C698.977 178.839 703.061 175.751 707.651 173.979C711.431 172.511 714.722 171.751 714.688 170.925C714.672 170.536 713.76 170.233 712.258 170.199C710.773 170.182 708.714 170.503 706.605 171.296Z" fill="#5DA279" style="user-select: auto !important;"></path>
                            <path d="M685.24 174.925C680.869 176.157 676.987 178.891 674.338 182.57C673.258 184.106 672.65 185.743 672.465 186.958C672.313 188.19 672.481 188.983 672.87 189.068C673.275 189.169 673.781 188.578 674.372 187.667C674.996 186.755 675.755 185.54 676.684 184.241C678.928 181.102 682.303 178.739 686.016 177.693C687.552 177.271 688.969 176.967 690.033 176.697C691.096 176.444 691.822 176.157 691.855 175.752C691.906 175.364 691.214 174.925 689.999 174.655C688.784 174.402 687.046 174.419 685.223 174.925H685.24Z" fill="#5DA279" style="user-select: auto !important;"></path>
                            <path d="M334.283 159.331C330.368 155.247 324.815 152.918 319.162 152.969C316.816 153.019 314.724 153.694 313.407 154.454C312.091 155.264 311.483 156.023 311.669 156.361C311.871 156.715 312.8 156.614 314.116 156.361C315.449 156.141 317.221 155.905 319.196 155.838C323.989 155.787 328.883 157.829 332.19 161.305C333.54 162.757 334.587 164.208 335.38 165.305C336.123 166.419 336.696 167.161 337.084 167.043C337.456 166.959 337.574 165.98 337.236 164.478C336.865 162.993 335.886 161.035 334.283 159.314V159.331Z" fill="#5DA279" style="user-select: auto !important;"></path>
                            <path d="M350.957 158.96C347.784 156.834 344.054 155.568 340.24 155.349C337.017 155.163 334.621 156.48 334.857 157.222C335.076 158.015 337.371 158.066 340.072 158.218C343.362 158.403 346.62 159.5 349.354 161.34C351.598 162.842 353.454 164.192 354.113 163.703C354.737 163.247 353.64 160.749 350.957 158.943V158.96Z" fill="#5DA279" style="user-select: auto !important;"></path>
                            <path d="M872.886 156.445C867.367 156.377 861.916 158.47 857.866 162.217C856.195 163.803 855.098 165.609 854.609 167.026C854.153 168.461 854.17 169.423 854.524 169.558C854.912 169.71 855.554 169.051 856.381 168.022C857.258 167.009 858.406 165.676 859.823 164.326C863.283 161.103 868.093 159.263 872.835 159.331C874.793 159.381 876.548 159.601 877.864 159.769C879.163 159.972 880.092 160.023 880.277 159.668C880.446 159.331 879.822 158.605 878.522 157.846C877.206 157.12 875.181 156.512 872.886 156.445Z" fill="#5DA279" style="user-select: auto !important;"></path>
                            <path d="M897.069 158.791C890.335 157.694 883.315 158.858 877.307 162.082C874.826 163.449 872.886 165.17 871.721 166.587C870.574 168.056 870.135 169.136 870.422 169.372C870.742 169.642 871.704 169.051 873.105 168.073C874.523 167.111 876.446 165.828 878.674 164.596C884.091 161.677 890.538 160.613 896.613 161.609C899.128 162.048 901.356 162.638 903.009 163.077C904.646 163.55 905.743 163.786 905.963 163.432C906.165 163.111 905.389 162.233 903.836 161.221C902.267 160.242 899.87 159.246 897.086 158.757L897.069 158.791Z" fill="#5DA279" style="user-select: auto !important;"></path>
                            <path d="M100.33 144.565C94.4567 145.324 88.8538 147.856 84.3985 151.771C82.559 153.408 81.2427 155.231 80.517 156.665C79.8251 158.117 79.6563 159.146 79.9938 159.332C80.3482 159.534 81.1245 158.91 82.1709 157.863C83.2509 156.834 84.6516 155.416 86.2886 153.931C90.2883 150.404 95.4018 148.109 100.684 147.434C102.878 147.181 104.869 147.046 106.354 146.928C107.839 146.843 108.818 146.674 108.903 146.269C108.987 145.898 108.109 145.341 106.557 144.902C105.004 144.497 102.76 144.278 100.313 144.565H100.33Z" fill="#5DA279" style="user-select: auto !important;"></path>
                            <path d="M120.226 145.409C114.083 145.054 107.89 146.54 102.574 149.628C100.38 150.927 98.6586 152.514 97.6291 153.83C96.6165 155.163 96.2284 156.159 96.5153 156.412C96.8191 156.682 97.7304 156.193 99.0129 155.332C100.312 154.488 102.034 153.307 104.025 152.126C108.835 149.324 114.505 147.974 120.074 148.295C122.37 148.446 124.445 148.717 125.981 148.885C127.517 149.088 128.546 149.105 128.698 148.733C128.85 148.379 128.057 147.67 126.538 146.945C125.019 146.236 122.775 145.611 120.226 145.443V145.409Z" fill="#5DA279" style="user-select: auto !important;"></path>
                            <path d="M1106.23 181.237C1102.72 181.203 1099.19 181.743 1095.87 182.857C1093.09 183.785 1091.31 185.54 1091.72 186.215C1092.12 186.907 1094.3 186.418 1096.78 185.591C1099.8 184.578 1103.01 184.072 1106.2 184.123C1108.83 184.156 1111.04 183.954 1111.21 183.178C1111.38 182.418 1109.17 181.287 1106.23 181.254V181.237Z" fill="#5DA279" style="user-select: auto !important;"></path>
                            <path d="M189.064 173.676C185.284 172.478 181.166 173.237 178.044 175.667C176.761 176.713 176.002 178.114 175.816 179.177C175.647 180.257 175.884 180.932 176.255 181.017C176.66 181.101 177.133 180.646 177.673 180.021C178.246 179.414 178.955 178.654 179.85 177.912C182.077 176.123 185.436 175.515 188.153 176.41C189.267 176.798 190.195 177.253 190.937 177.625C191.646 178.013 192.254 178.283 192.608 178.064C192.929 177.861 192.912 177.152 192.372 176.19C191.815 175.262 190.617 174.216 189.047 173.676H189.064Z" fill="#5DA279" style="user-select: auto !important;"></path>
                            <path d="M1570.29 173.676C1566.51 172.478 1562.39 173.237 1559.27 175.667C1557.99 176.713 1557.23 178.114 1557.04 179.177C1556.88 180.257 1557.11 180.932 1557.48 181.017C1557.89 181.101 1558.36 180.646 1558.9 180.021C1559.47 179.414 1560.18 178.654 1561.08 177.912C1563.31 176.123 1566.66 175.515 1569.38 176.41C1570.5 176.798 1571.42 177.253 1572.17 177.625C1572.87 178.013 1573.48 178.283 1573.84 178.064C1574.16 177.861 1574.14 177.152 1573.6 176.19C1573.04 175.262 1571.85 174.216 1570.28 173.676H1570.29Z" fill="#5DA279" style="user-select: auto !important;"></path>
                            <path d="M1295.97 135.536C1292.19 134.338 1288.07 135.097 1284.95 137.527C1283.67 138.574 1282.91 139.975 1282.72 141.038C1282.55 142.118 1282.79 142.793 1283.16 142.877C1283.57 142.962 1284.04 142.506 1284.58 141.882C1285.15 141.274 1285.86 140.515 1286.76 139.772C1288.98 137.983 1292.34 137.376 1295.06 138.27C1296.17 138.658 1297.1 139.114 1297.84 139.485C1298.55 139.873 1299.16 140.143 1299.51 139.924C1299.84 139.721 1299.82 139.013 1299.28 138.051C1298.72 137.122 1297.52 136.076 1295.95 135.536H1295.97Z" fill="#5DA279" style="user-select: auto !important;"></path>
                            <path d="M1517.69 70.0223C1511.65 66.5121 1504.83 64.3519 1497.88 63.7275C1492.05 63.2043 1487.45 64.6388 1487.6 65.3813C1487.73 66.1914 1492.21 66.0901 1497.61 66.5964C1504.14 67.1871 1510.55 69.2291 1516.24 72.5199C1520.93 75.237 1524.52 77.9034 1525.12 77.3127C1525.67 76.7896 1522.75 72.9587 1517.69 70.0223Z" fill="#5DA279" style="user-select: auto !important;"></path>
                            <path d="M1534.6 70.4449C1531.58 68.0991 1527.97 66.5465 1524.19 65.9727C1521 65.5002 1518.48 66.5465 1518.63 67.3059C1518.77 68.116 1521.06 68.4028 1523.76 68.8247C1527.04 69.331 1530.21 70.6812 1532.84 72.7232C1535 74.3939 1536.79 75.8452 1537.47 75.3896C1538.13 74.9677 1537.15 72.4194 1534.62 70.4449H1534.6Z" fill="#5DA279" style="user-select: auto !important;"></path>
                            <path d="M1626.32 121.512C1623.44 117.023 1619.08 113.547 1614.09 111.724C1611.99 110.981 1609.97 110.779 1608.53 110.914C1607.08 111.066 1606.24 111.454 1606.24 111.825C1606.24 112.23 1607.08 112.585 1608.33 112.939C1609.6 113.327 1611.27 113.8 1613.09 114.441C1617.48 116.027 1621.36 119.133 1623.89 123.065C1624.92 124.702 1625.75 126.238 1626.41 127.385C1627.03 128.533 1627.55 129.275 1627.96 129.191C1628.33 129.123 1628.52 128.212 1628.35 126.761C1628.14 125.326 1627.5 123.402 1626.32 121.512Z" fill="#5DA279" style="user-select: auto !important;"></path>
                            <path d="M1639.32 123.081C1636.94 120.921 1634.25 119.099 1631.37 117.681C1628.95 116.5 1626.68 116.483 1626.46 117.242C1626.22 118.018 1627.92 119.2 1630.1 120.263C1632.73 121.562 1635.2 123.233 1637.38 125.208C1639.16 126.828 1640.89 127.975 1641.53 127.486C1642.15 127.013 1641.31 124.887 1639.32 123.081Z" fill="#5DA279" style="user-select: auto !important;"></path>
                            <path d="M1474 151.416C1470.4 151.281 1466.82 152.463 1464.02 154.724C1462.88 155.669 1462.1 156.834 1461.76 157.762C1461.44 158.707 1461.51 159.382 1461.86 159.551C1462.62 159.888 1464.01 158.42 1465.83 156.952C1468.06 155.146 1471.01 154.167 1473.88 154.285C1476.22 154.37 1478.2 154.707 1478.6 153.998C1478.77 153.661 1478.44 153.07 1477.63 152.496C1476.82 151.939 1475.5 151.467 1474 151.399V151.416Z" fill="#5DA279" style="user-select: auto !important;"></path>
                            <path d="M1489.32 154.369C1485.76 153.542 1481.98 153.846 1478.6 155.247C1477.2 155.837 1476.09 156.715 1475.47 157.491C1474.84 158.285 1474.66 158.943 1474.93 159.23C1475.5 159.803 1477.41 158.841 1479.7 157.913C1482.5 156.749 1485.71 156.496 1488.66 157.188C1491.09 157.745 1493.12 158.386 1493.59 157.728C1493.81 157.407 1493.52 156.783 1492.76 156.091C1492.02 155.416 1490.79 154.741 1489.3 154.386L1489.32 154.369Z" fill="#5DA279" style="user-select: auto !important;"></path>
                        </svg>