<svg class="tms-bg2" xmlns="http://www.w3.org/2000/svg" width="150" height="154" viewBox="0 0 150 154" fill="none" style="user-select: auto !important; transform: translateY(-15%) rotate(-5deg);">
                <path d="M139.673 63.7743C146.771 52.8769 143.888 38.1543 133.238 30.8922C122.587 23.63 108.198 26.5795 101.101 37.4768L75.3989 76.9436L113.972 103.241C124.622 110.503 139.011 107.554 146.109 96.6564C153.206 85.759 150.324 71.0364 139.673 63.7743Z" fill="#F193B7" style="user-select: auto !important;"></path>
                <path d="M11.1161 90.1211C4.01849 101.018 6.90115 115.741 17.5516 123.003C28.2021 130.265 42.5912 127.316 49.6888 116.419L75.3905 76.9518L36.8178 50.6544C26.1673 43.3922 11.7782 46.3417 4.68062 57.239C-2.41702 68.1364 0.46564 82.859 11.1161 90.1211Z" fill="#F193B7" style="user-select: auto !important;"></path>
                <path d="M88.2699 142.716C98.9204 149.978 113.309 147.029 120.407 136.131C127.505 125.234 124.622 110.511 113.972 103.249L75.3989 76.9519L49.6972 116.419C42.5996 127.316 45.4822 142.039 56.1327 149.301C66.7832 156.563 81.1723 153.613 88.2699 142.716Z" fill="#F8C9DF" style="user-select: auto !important;"></path>
                <path d="M62.5195 11.1792C51.869 3.91708 37.4799 6.86656 30.3823 17.7639C23.2846 28.6613 26.1673 43.3839 36.8178 50.646L75.3905 76.9434L101.092 37.4766C108.19 26.5793 105.307 11.8567 94.6566 4.59455C84.0061 -2.6676 69.6171 0.281874 62.5195 11.1792Z" fill="#F8C9DF" style="user-select: auto !important;"></path>
                </svg>