<?xml version="1.0" encoding="UTF-8"?>
<svg enable-background="new 0 0 25 25" version="1.1" viewBox="0 0 25 25" xml:space="preserve" xmlns="http://www.w3.org/2000/svg" xmlns:cc="http://creativecommons.org/ns#" xmlns:dc="http://purl.org/dc/elements/1.1/" xmlns:rdf="http://www.w3.org/1999/02/22-rdf-syntax-ns#"><metadata><rdf:RDF><cc:Work rdf:about=""><dc:format>image/svg+xml</dc:format><dc:type rdf:resource="http://purl.org/dc/dcmitype/StillImage"/><dc:title/></cc:Work></rdf:RDF></metadata>
<style type="text/css">
	.st0{fill:#454A56;}
</style>
<path class="st0" d="m8.5 12.4c0-2.3 1.8-4.1 4.1-4.1s4.1 1.9 4.1 4.1-1.9 4.1-4.1 4.1-4.1-1.8-4.1-4.1m-2.3 0c0 3.5 2.8 6.4 6.4 6.4s6.4-2.8 6.4-6.4-2.8-6.4-6.4-6.4-6.4 2.9-6.4 6.4m11.5-6.6c0 0.8 0.7 1.5 1.5 1.5s1.5-0.7 1.5-1.5-0.7-1.5-1.5-1.5-1.5 0.7-1.5 1.5m-10.1 16.7c-1.2-0.1-1.9-0.3-2.3-0.4-0.6-0.2-1-0.5-1.4-0.9s-0.7-0.8-0.9-1.4c-0.2-0.4-0.4-1.1-0.4-2.3-0.1-1.3-0.1-1.7-0.1-5s0-3.7 0.1-5c0.1-1.2 0.3-1.9 0.4-2.3 0.2-0.6 0.5-1 0.9-1.4s0.8-0.8 1.4-1c0.4-0.2 1.1-0.4 2.3-0.4 1.3-0.1 1.7-0.1 5-0.1s3.7 0 5 0.1c1.2 0.1 1.9 0.3 2.3 0.4 0.6 0.2 1 0.5 1.4 0.9s0.7 0.8 0.9 1.4c0.2 0.4 0.4 1.1 0.4 2.3 0.1 1.3 0.1 1.7 0.1 5s0 3.7-0.1 5c-0.1 1.2-0.3 1.9-0.4 2.3-0.2 0.6-0.5 1-0.9 1.4s-0.8 0.7-1.4 0.9c-0.4 0.2-1.1 0.4-2.3 0.4-1.3 0.1-1.7 0.1-5 0.1s-3.7 0.1-5 0m-0.1-22.4c-1.3 0.1-2.2 0.3-3 0.6s-1.5 0.7-2.2 1.4-1.1 1.4-1.4 2.2-0.6 1.7-0.6 3c-0.1 1.3-0.1 1.7-0.1 5.1s0 3.8 0.1 5.1 0.3 2.2 0.6 3 0.7 1.5 1.4 2.2 1.4 1.1 2.2 1.4 1.7 0.5 3 0.6 1.7 0.1 5.1 0.1 3.8 0 5.1-0.1 2.2-0.3 3-0.6 1.5-0.7 2.2-1.4 1.1-1.4 1.4-2.2 0.5-1.7 0.6-3 0.1-1.7 0.1-5.1 0-3.8-0.1-5.1-0.3-2.2-0.6-3-0.7-1.5-1.4-2.2-1.4-1.1-2.2-1.4-1.7-0.5-3-0.6c-1.3 0-1.7-0.1-5.1-0.1s-3.8 0.1-5.1 0.1"/>
</svg>
