<?xml version="1.0" encoding="UTF-8"?>
<svg enable-background="new 0 0 35 25" version="1.1" viewBox="0 0 35 25" xml:space="preserve" xmlns="http://www.w3.org/2000/svg" xmlns:cc="http://creativecommons.org/ns#" xmlns:dc="http://purl.org/dc/elements/1.1/" xmlns:rdf="http://www.w3.org/1999/02/22-rdf-syntax-ns#"><metadata><rdf:RDF><cc:Work rdf:about=""><dc:format>image/svg+xml</dc:format><dc:type rdf:resource="http://purl.org/dc/dcmitype/StillImage"/><dc:title/></cc:Work></rdf:RDF></metadata>
<style type="text/css">
	.st0{fill:#454A56;}
</style>
<path class="st0" d="m17.9 23.3-6.6-0.1c-2.1 0-4.3 0-6.4-0.4-3.2-0.7-3.4-3.8-3.7-6.5-0.3-3.9-0.2-7.7 0.5-11.4 0.3-2.1 1.7-3.4 3.8-3.5 7.1-0.5 14.3-0.4 21.4-0.2 0.8 0 1.5 0.1 2.2 0.3 3.7 0.6 3.7 4.3 4 7.3 0.2 3.1 0.1 6.2-0.3 9.2-0.4 2.5-1.1 4.7-4 4.9-3.6 0.2-7.2 0.4-10.9 0.4zm-3.9-6.5c2.8-1.6 5.5-3.1 8.2-4.7-2.7-1.6-5.5-3.1-8.2-4.7v9.4z"/>
</svg>
