<svg viewBox="0 0 1728 919" fill="none" xmlns="http://www.w3.org/2000/svg" style="user-select: auto !important;">
                    <path d="M1660.33 282.531C1626.15 288.915 1595.86 312.987 1582.13 344.643C1549.62 338.706 1514.4 350.173 1491.76 374.021C1469.12 397.89 1459.74 433.429 1467.7 465.227C1404.8 459.311 1339.7 488.872 1303.14 539.965C1266.58 591.057 1259.93 661.708 1286.34 718.615C1252.61 700.012 1207.75 707.515 1178.44 732.42C1172.05 737.849 1166.39 743.968 1161.43 750.617C1109.84 716.521 1038.6 706.437 977.649 725.304C995.45 682.649 985.38 631.903 952.22 597.116C919.041 562.329 864.053 544.844 813.317 552.936C835.186 500.055 775.458 435.991 712.354 444.632C746.144 394.739 762.215 332.383 739.837 277.712C717.46 223.042 649.595 181.627 585.392 194.842C599.327 162.19 589.461 122.707 561.265 98.2281C533.069 73.7493 488.111 65.6575 451.269 78.4052C454.341 32.0906 397.014 -5.5628 344.854 0.678893C292.674 6.92058 251.621 46.8105 236.12 91.1529C198.444 77.8969 153.181 82.9797 120.489 104.145C89.7099 124.069 71.0551 157.616 71.5434 191.203C38.9943 185.327 3.45474 195.249 -20.2247 217.999C-45.1451 241.95 -55.744 278.912 -48.1966 312.133C-49.8648 312.519 -51.5125 312.946 -53.1603 313.414C-72.2626 318.903 -89.5543 329.943 -102.757 344.48C-120.578 336.002 -140.86 333.013 -160.166 336.673C-173.348 305.017 -202.418 280.965 -235.212 274.561C-268.005 268.177 -303.544 279.623 -327 304.143V911.05H71.8486V919H1756V312.113C1731.57 287.593 1694.5 276.147 1660.35 282.531H1660.33Z" fill="white" style="user-select: auto !important;"></path>
                </svg>