<svg viewBox="0 0 158 60" fill="none" xmlns="http://www.w3.org/2000/svg" style="user-select: auto !important;">
                            <path d="M23.361 51.2016C20.4064 47.7143 13.5019 34.1355 9.43827 31.1873C11.5337 30.0291 16.761 24.7265 18.2519 23.2481C20.8837 20.641 29.2655 10.5707 29.3246 7.92992C29.3474 6.80537 27.7519 6.29575 26.7519 6.48528C25.4428 6.73799 25.0201 7.91729 24.4019 8.87336C22.911 11.173 18.8837 16.9136 16.0292 20.0514C11.8337 24.6717 9.67463 26.984 6.3019 28.0917C6.17463 26.1711 6.59736 19.8956 6.67463 17.7686C6.78827 14.6393 7.37464 8.50693 8.50191 6.89382C8.32918 6.67481 5.61098 4.58157 3.87462 6.4895C2.47916 8.02258 0.970084 14.2434 0.820084 16.7157C0.751902 17.8234 1.27917 19.1416 1.43826 19.6176C1.58826 20.8221 0.33826 33.5754 0.160988 36.3425C-0.307194 43.6626 0.288275 49.0199 1.39737 51.3996C2.16555 53.0506 3.20645 53.7624 4.51099 53.7624C6.29281 53.7624 7.5928 52.6252 8.25644 51.1595C7.11553 50.6499 6.77462 49.4116 6.40644 48.0386C5.59735 45.0482 6.23825 34.86 6.06098 33.3395C7.72007 34.86 12.511 43.8058 13.5973 45.7642C15.3383 48.8936 18.8246 54.6426 21.6292 57.3803C23.3155 59.0229 25.1564 60 26.6928 60C27.8928 60 28.8519 59.6757 29.5564 59.0313C30.261 58.3911 30.6155 57.5067 30.6155 56.4116C27.9337 56.3863 25.9792 54.2931 23.3565 51.2016H23.361Z" fill="black" style="user-select: auto !important;"></path>
                            <path d="M147.265 7.28129C147.87 1.78072 148.629 1.28794 148.052 0.567726C147.593 -0.00507429 144.861 -0.358863 144.075 0.580361C142.179 3.23378 140.115 20.5189 139.506 26.0194C134.556 22.9533 126.447 26.6133 125.102 39.2444C121.365 45.7095 117.82 47.7438 114.897 47.7817C111.975 47.8196 109.711 44.526 109.406 40.8828C113.502 41.2408 116.834 36.5194 117.438 33.3563C118.015 30.3407 116.697 26.1037 112.702 26.2932C108.206 26.508 104.425 30.1554 103.806 38.082C102.502 42.4664 100.225 47.7269 97.72 47.5626C95.5109 47.4152 95.37 35.0495 95.4928 31.2294C97.2291 25.7752 98.4973 16.7283 98.5836 14.3613C100.788 14.3192 108.347 14.4118 110.07 14.3191C111.365 14.2475 110.37 11.7289 109.602 11.7121C106.925 11.6531 100.465 11.7795 98.5836 11.7795C98.6291 10.0231 98.9155 4.82583 97.0246 2.93895C96.0473 1.96604 93.2791 1.47746 92.0746 2.76205C90.3291 4.61944 89.8064 7.50451 89.5109 11.7121C88.9018 11.7121 85.9019 11.7795 85.3291 11.7795C85.3791 10.3559 85.7519 5.81559 84.2519 3.55808C83.4019 2.28192 81.1927 1.27951 79.0927 2.51356C77.3882 3.51596 76.3109 7.2181 76.2291 12.0659C75.4473 12.1627 63.1837 13.0177 62.2973 13.1399C61.9337 13.1904 61.4882 13.5315 61.5109 13.8685C61.5973 15.1362 62.5291 15.3468 63.5245 15.2963C65.8791 15.1994 75.6655 14.7361 76.1791 14.7867C75.8882 20.1735 75.8473 30.3323 76.2246 33.1795C74.9564 33.8323 73.5791 34.3672 71.9655 34.801C71.9337 32.4929 70.9336 27.8431 68.5882 26.15C67.72 25.5225 65.1609 24.3305 62.9882 25.7794C61.7382 26.6133 61.1291 28.7234 61.2518 30.3828C60.3291 29.7469 58.2336 29.5826 56.8882 30.5892C55.27 31.8022 54.8791 34.7462 55.02 37.3702C54.2882 38.7095 51.6064 42.8792 50.2746 43.7173C49.0109 44.5091 48.1427 44.1764 47.5655 42.7149C46.8427 40.887 45.7882 36.1867 44.5836 33.8154C43.7836 32.2402 42.3609 30.1512 40.0473 30.1512C38.1746 30.1512 36.6428 31.1831 35.6018 33.0405C35.9018 29.2162 35.6337 26.7607 33.5155 26.449C31.0518 26.091 29.7246 26.706 29.9246 28.7571C30.2246 31.819 28.7791 44.2732 31.0564 48.0638C31.7018 49.1378 32.4064 49.8875 34.3973 49.837C36.4609 49.7822 37.1064 48.603 36.8927 47.4363C36.5564 45.5873 36.2336 40.6006 36.5746 37.7871C36.8746 35.3106 37.8564 33.1163 39.5609 33.2258C41.2655 33.3353 42.2382 36.7173 43.0746 40.3268C43.7246 43.1445 45.2109 45.2293 45.9882 45.8779C47.5382 47.1752 49.8382 46.8677 50.8155 46.5982C52.2427 46.2022 54.6564 43.9784 55.4109 42.6601C55.8109 44.6649 56.6382 46.7666 58.27 48.2113C61.6609 51.2142 66.5518 50.4351 69.0927 47.0404C70.5882 45.0398 72.0973 40.5374 72.0427 37.3028C73.4973 37.109 74.9791 36.6752 76.4882 36.0182C76.7109 41.3503 77.3382 46.1054 79.6655 48.5819C82.3655 51.4585 86.42 50.751 88.7518 48.4934C89.67 47.6048 90.42 46.6824 91.1018 45.5368C92.2291 48.2576 93.9427 50.852 98.0836 50.3424C102.238 49.8328 104.047 46.198 104.815 44.7113C106.143 47.6048 109.693 50.3719 114.197 50.4351C119.125 50.5067 122.556 48.0681 125.47 44.1216C126.229 46.1222 127.793 47.8701 131.565 47.8575C135.788 47.8406 138.434 44.3112 140.302 38.52C140.343 47.1457 141.679 54.9796 143.729 58.3237C145.175 60.6823 148.325 59.4019 150.447 58.4079C143.447 43.5278 146.02 18.6868 147.275 7.26865L147.265 7.28129ZM63.6064 46.4929C61.8837 46.1138 60.5928 34.9273 61.6382 31.6422C62.2564 34.464 65.0337 37.7324 67.5291 37.2228C66.9564 39.9899 65.9927 47.0193 63.6064 46.4929ZM65.6018 27.5188C67.2064 27.2745 67.6927 32.8594 67.7973 33.9586C64.8427 32.434 64.5337 27.6831 65.6018 27.5188ZM95.6018 5.605C96.5791 5.66396 96.5791 9.99788 96.4836 11.7163C96.4791 11.7163 95.4291 11.7163 94.8155 11.7163C94.7882 10.4949 94.92 5.5671 95.6018 5.60921V5.605ZM82.3427 5.605C83.32 5.65554 83.2427 10.3432 83.2064 11.8553H81.5564C81.5518 10.4822 81.6291 5.56709 82.3427 5.605ZM81.6018 24.8022C81.4473 21.1422 81.5246 15.8312 81.5246 15.1615C82.0791 15.1362 82.62 15.1068 83.1473 15.0857C82.97 17.5875 82.4427 22.0225 81.6018 24.8022ZM84.4609 47.5669C82.1609 47.4868 82.1473 33.9376 82.2291 31.2336C83.9609 24.8275 84.9473 18.9563 85.3064 14.9762C86.6337 14.9172 88.0109 14.854 89.4473 14.7909C88.9609 21.9256 89.0109 31.8949 90.0746 39.5603C89.1609 42.1884 87.3109 47.6595 84.4609 47.5626V47.5669ZM94.8609 24.8022C94.7109 23.7746 94.77 18.0845 94.7836 14.3908C94.7836 14.3908 96.0154 14.3908 96.4291 14.3908C96.3973 16.3829 95.6655 21.6055 94.8564 24.8022H94.8609ZM109.788 33.887C110.52 30.7029 111.438 28.7066 113.065 28.5212C114.106 28.357 114.425 30.3913 113.456 33.668C113.061 35.0074 111.761 38.6 109.797 39.0886C108.688 39.3665 109.543 34.94 109.788 33.887ZM136.129 37.5934C135.656 38.899 133.525 44.8208 131.579 44.8924C129.634 44.964 130.238 37.665 131.161 34.3924C132.625 29.212 134.606 27.0218 135.588 26.8829C137.052 26.6723 138.588 28.2096 138.952 28.5886C138.847 28.9677 136.597 36.2919 136.129 37.5976V37.5934Z" fill="black" style="user-select: auto !important;"></path>
                            <path d="M156.134 54.2131C156.515 54.411 156.815 54.6848 157.034 55.0302C157.252 55.3755 157.361 55.7504 157.361 56.1547C157.361 56.559 157.252 56.9423 157.034 57.2835C156.815 57.6246 156.515 57.8942 156.134 58.0963C155.752 58.2943 155.329 58.3954 154.861 58.3954C154.393 58.3954 153.97 58.2943 153.588 58.0963C153.206 57.8984 152.906 57.6246 152.688 57.2835C152.47 56.9423 152.361 56.5675 152.361 56.1547C152.361 55.742 152.47 55.3755 152.688 55.0302C152.906 54.6848 153.206 54.4153 153.588 54.2131C153.97 54.0151 154.393 53.9141 154.861 53.9141C155.329 53.9141 155.752 54.0151 156.134 54.2131ZM155.884 57.7257C156.184 57.5699 156.415 57.3551 156.579 57.0813C156.743 56.8075 156.829 56.5001 156.829 56.1547C156.829 55.8093 156.747 55.5103 156.579 55.2366C156.415 54.9628 156.179 54.748 155.879 54.5922C155.579 54.4363 155.238 54.3563 154.861 54.3563C154.484 54.3563 154.143 54.4363 153.843 54.5922C153.543 54.748 153.306 54.9628 153.143 55.2366C152.979 55.5103 152.893 55.8178 152.893 56.1547C152.893 56.4917 152.974 56.8075 153.143 57.0813C153.306 57.3551 153.538 57.5699 153.838 57.7257C154.138 57.8815 154.479 57.9616 154.861 57.9616C155.243 57.9616 155.584 57.8815 155.884 57.7257ZM155.797 56.1168C155.724 56.2221 155.624 56.3063 155.497 56.3569L156.074 57.1445H155.438L154.924 56.4074H154.497V57.1445H153.938V55.1186H155.206C155.42 55.1186 155.588 55.1818 155.715 55.3039C155.843 55.4261 155.906 55.5777 155.906 55.7588C155.906 55.8894 155.87 56.0073 155.802 56.1168H155.797ZM154.497 55.9568H155.097C155.17 55.9568 155.224 55.9399 155.265 55.902C155.306 55.8683 155.329 55.8178 155.329 55.7588C155.329 55.6999 155.306 55.6493 155.265 55.6156C155.224 55.5819 155.17 55.5609 155.097 55.5609H154.497V55.9568Z" fill="black" style="user-select: auto !important;"></path>
            </svg>