<svg viewBox="0 0 408 431" fill="none" xmlns="http://www.w3.org/2000/svg" style="user-select: auto !important;">
                            <path d="M219.442 67.1211C232.616 39.0504 254.944 15.9629 281.009 5.93446C297.567 -0.43602 311.545 -1.97342 324.577 2.77131C337.601 7.5072 344.051 23.0402 338.776 33.9169C347.629 32.9714 357.357 35.2069 363.127 42.5051C369.851 51.0226 370.355 64.0198 363.64 72.5373" fill="#FFC8E1" style="user-select: auto !important;"></path>
                            <path d="M283.907 37.1153C281.362 37.0888 278.985 37.7249 276.644 38.3258C274.294 38.9531 272.014 39.7925 269.779 40.729C267.543 41.6833 265.396 42.8231 263.311 44.0601C261.235 45.3147 259.256 46.7284 257.356 48.2393C254.228 50.7751 251.781 53.4965 250.208 55.5994C249.837 56.1207 249.492 56.6066 249.183 57.0396C248.9 57.4814 248.679 57.8701 248.494 58.1882C248.131 58.8332 247.981 59.2132 248.061 59.2662C248.149 59.328 248.467 59.063 248.962 58.5328C249.209 58.2677 249.51 57.9408 249.846 57.5521C250.208 57.1633 250.597 56.7392 251.03 56.2709C252.779 54.3801 255.271 51.8619 258.301 49.3968C260.148 47.9301 262.065 46.5517 264.089 45.3324C266.112 44.1308 268.206 43.0175 270.371 42.0986C272.544 41.1885 274.762 40.3668 277.042 39.766C279.321 39.1828 281.627 38.582 283.889 38.6085C284.817 38.6262 285.718 38.7322 286.522 38.9796C287.317 39.227 288.068 39.6246 288.607 40.0841C289.703 41.0471 290.118 42.5315 290.118 43.6713C290.136 44.8553 289.668 45.7212 289.235 46.1983C288.775 46.6666 288.395 46.8433 288.44 46.967C288.457 47.02 288.563 47.0288 288.766 46.9935C288.979 46.9758 289.261 46.861 289.606 46.6577C290.277 46.2336 291.064 45.1822 291.187 43.742C291.329 42.3371 291.002 40.4993 289.553 39.068C288.113 37.7073 285.992 37.1064 283.907 37.1064V37.1153Z" fill="#DAB0C3" style="user-select: auto !important;"></path>
                            <path d="M255.624 36.5589C252.054 39.8987 248.838 43.6009 246.046 47.6034C243.722 50.9256 242.467 53.9915 242.83 54.1771C243.21 54.3803 245.021 51.7031 247.283 48.4693C250.022 44.5551 253.167 40.9237 256.657 37.6633C259.547 34.9596 261.932 32.7949 261.685 32.4503C261.446 32.1234 258.592 33.7933 255.633 36.5589H255.624Z" fill="#DAB0C3" style="user-select: auto !important;"></path>
                            <path d="M194.905 67.1211C181.731 39.0504 159.404 15.9629 133.339 5.93446C116.781 -0.43602 102.803 -1.97342 89.7703 2.77131C76.7466 7.5072 70.2966 23.0402 75.5715 33.9169C66.7182 32.9714 56.9902 35.2069 51.2205 42.5051C44.4966 51.0226 43.993 64.0198 50.7081 72.5373" fill="#FFC8E1" style="user-select: auto !important;"></path>
                            <path d="M174.01 48.425C170.202 45.2089 166.049 42.408 161.64 40.0754C157.982 38.1404 154.713 37.2656 154.58 37.6456C154.43 38.0432 157.372 39.5187 160.942 41.4095C165.254 43.6891 169.318 46.4282 173.038 49.5736C176.121 52.1802 178.587 54.3537 178.905 54.0621C179.205 53.7882 177.173 51.0934 174.01 48.4162V48.425Z" fill="#DAB0C3" style="user-select: auto !important;"></path>
                            <path d="M331.929 35.1449C336.24 33.8991 340.923 33.3689 346.03 33.793L331.929 35.1449Z" fill="#FFC8E1" style="user-select: auto !important;"></path>
                            <path d="M86.2631 36.4885C80.9175 34.3238 74.9711 33.2547 68.3091 33.8025L86.2631 36.4885Z" fill="#FFC8E1" style="user-select: auto !important;"></path>
                            <path d="M208.028 73.288C196.913 73.288 168.93 69.4269 168.93 53.1605C168.93 36.8941 185.426 25.1074 208.735 25.1074C227.157 25.1074 245.517 35.6925 245.517 52.7717C245.517 65.7159 229.083 73.2792 208.028 73.2792V73.288Z" fill="#FFF0A0" style="user-select: auto !important;"></path>
                            <path d="M2.88232 127.84C15.9149 165.647 33.5507 216.903 50.197 261.487H354.823C370.444 221.851 388.955 165.647 401.996 127.84H2.89114H2.88232Z" fill="#FFF0A0" style="user-select: auto !important;"></path>
                            <path d="M11.6304 135.05C24.2741 170.383 40.461 218.67 55.7996 259.773H349.204C363.615 223.212 380.491 171.037 393.249 135.05H11.6304Z" fill="#EBC891" style="user-select: auto !important;"></path>
                            <path d="M2.88232 127.839H401.987L379.659 64.0552H16.6836L2.88232 127.839Z" fill="#FFF0A0" style="user-select: auto !important;"></path>
                            <path d="M371.292 174.968C368.941 150.237 361.626 126.629 346.685 102.905C332.786 80.8336 319.418 70.3899 296.348 61.2009C282.291 55.5991 264.955 53.6906 249.139 55.4489C229.047 57.6843 224.532 64.2403 224.532 64.2403H235.957C257.931 64.2403 283.324 85.0747 293.715 107.641C304.106 130.207 306.597 155.477 308.939 180.199L337.018 164.427L371.292 174.977V174.968Z" fill="#FFC8E1" style="user-select: auto !important;"></path>
                            <path d="M55.3306 154.885C57.2921 137.258 61.5067 117.457 75.7585 95.4303C87.7131 76.955 97.4853 66.8294 120.564 59.2926C134.621 54.6981 149.739 54.1149 165.573 55.3784C181.883 56.6861 193.299 64.0727 193.299 64.0727H181.874C159.9 64.0727 140.709 76.3718 129.691 94.5114C118.602 112.775 116.385 138.893 114.034 159.17L85.7163 142.162L55.3306 154.876V154.885Z" fill="#FFC8E1" style="user-select: auto !important;"></path>
                            <path d="M197.847 43.1138C200.94 43.1138 201.117 36.5312 198.059 36.5312C195.002 36.5312 194.755 43.1138 197.847 43.1138Z" fill="#656564" style="user-select: auto !important;"></path>
                            <path d="M197.848 43.8649C201.903 43.6617 202.23 35.7715 198.06 35.7715C193.987 35.7715 193.686 43.6529 197.848 43.8649C198.82 43.9179 198.811 42.407 197.848 42.354C195.701 42.248 195.939 37.2647 198.06 37.2735C200.225 37.2912 199.951 42.2392 197.848 42.354C196.885 42.407 196.876 43.9091 197.848 43.8649Z" fill="#656564" style="user-select: auto !important;"></path>
                            <path d="M217.304 43.1138C220.396 43.1138 220.573 36.5312 217.516 36.5312C214.459 36.5312 214.211 43.1138 217.304 43.1138Z" fill="#656564" style="user-select: auto !important;"></path>
                            <path d="M217.304 43.8649C221.359 43.6617 221.686 35.7715 217.516 35.7715C213.443 35.7715 213.142 43.6529 217.304 43.8649C218.276 43.9179 218.267 42.407 217.304 42.354C215.157 42.248 215.395 37.2647 217.516 37.2735C219.681 37.2912 219.407 42.2392 217.304 42.354C216.341 42.407 216.332 43.9091 217.304 43.8649Z" fill="#656564" style="user-select: auto !important;"></path>
                            <path d="M210.651 56.9067C208.822 55.0689 209.749 50.4478 212.727 49.688C215.687 48.9281 218.541 51.7113 219.248 54.203" fill="#FFC8E1" style="user-select: auto !important;"></path>
                            <path d="M217.233 50.0946C216.588 49.6087 215.855 49.2111 215.042 48.9902C214.229 48.7693 213.337 48.7516 212.497 48.9725C211.632 49.1934 210.863 49.7324 210.315 50.3862C209.767 51.0401 209.396 51.8088 209.184 52.604C208.822 53.9205 209.016 55.2281 209.485 56.0233C209.944 56.8362 210.527 57.0571 210.651 56.9157C210.81 56.7567 210.589 56.3238 210.483 55.6523C210.359 54.9807 210.368 54.0177 210.642 53.0104C210.96 51.7999 211.791 50.7131 212.886 50.4392C214.035 50.1212 215.307 50.5099 216.323 51.3051C218.064 52.604 218.841 54.3181 219.248 54.212C219.442 54.1679 219.513 53.6024 219.23 52.7807C218.956 51.9678 218.302 50.9164 217.242 50.1035L217.233 50.0946Z" fill="#717170" style="user-select: auto !important;"></path>
                            <path d="M216.049 54.7243C213.469 55.5902 210.721 55.9966 208 55.9701C205.287 55.9347 202.575 55.3339 199.995 54.4062C197.857 53.6463 195.992 52.7539 194.658 52.0736C193.324 51.3932 192.511 50.9161 192.37 51.0752C192.237 51.2254 192.838 52.0206 194.093 52.9748C195.338 53.9202 197.238 55.0158 199.491 55.8199C202.204 56.7918 205.058 57.4368 207.982 57.4721C210.88 57.5075 213.778 57.0745 216.535 56.1468C218.823 55.3781 220.732 54.203 221.898 53.1339C223.082 52.0647 223.568 51.1989 223.427 51.0752C223.259 50.925 222.517 51.5081 221.253 52.2856C219.999 53.072 218.187 54.0086 216.049 54.7243Z" fill="#717170" style="user-select: auto !important;"></path>
                            <path d="M224.664 51.4463C224.081 50.8101 223.356 50.28 222.535 49.9442C221.845 49.6615 221.2 49.9177 221.147 50.3241C221.094 50.7482 221.483 51.137 221.96 51.3402C222.561 51.5788 223.1 51.9764 223.551 52.4624C223.913 52.86 224.408 53.0543 224.779 52.8776C225.159 52.7009 225.159 51.9852 224.664 51.4463Z" fill="#717170" style="user-select: auto !important;"></path>
                            <path d="M192.688 52.4624C193.129 51.9764 193.677 51.5876 194.278 51.3402C194.755 51.137 195.144 50.7482 195.091 50.3241C195.047 49.9177 194.402 49.6615 193.704 49.9442C192.882 50.2711 192.158 50.8013 191.574 51.4463C191.08 51.9852 191.08 52.7009 191.46 52.8776C191.831 53.0543 192.325 52.86 192.688 52.4624Z" fill="#717170" style="user-select: auto !important;"></path>
                            <path d="M273.012 62.2704C269.743 60.4149 266.279 59.0012 262.772 57.773C259.255 56.5626 255.615 55.573 251.851 55.2196C248.732 54.9103 245.851 55.2814 243.89 55.8999C241.919 56.5184 240.859 57.2517 240.939 57.4196C241.027 57.6317 242.22 57.2694 244.137 56.9425C246.063 56.6156 248.749 56.43 251.718 56.7216C255.305 57.0574 258.84 58.0116 262.286 59.2044C265.731 60.4061 269.124 61.8021 272.27 63.5869C274.885 65.0624 277.085 66.644 278.596 67.8898C280.116 69.1356 281.017 69.9927 281.194 69.8425C281.344 69.7276 280.726 68.6055 279.329 67.1123C277.942 65.6102 275.733 63.7989 273.021 62.2704H273.012Z" fill="#DAB0C3" style="user-select: auto !important;"></path>
                            <path d="M149.288 55.7319C139.763 57.7376 130.707 61.908 122.993 67.8456C119.813 70.3284 117.233 72.9349 115.536 74.9494C113.866 76.9904 113 78.3776 113.151 78.4925C113.327 78.6338 114.485 77.4941 116.314 75.6739C118.178 73.8715 120.811 71.4593 123.912 69.0384C131.44 63.2422 140.294 59.1602 149.597 57.1986C153.459 56.4123 157.002 55.9882 159.582 55.7408C162.162 55.5287 163.779 55.3873 163.787 55.1665C163.787 54.9721 162.179 54.7335 159.538 54.6717C156.904 54.6451 153.247 54.9191 149.288 55.7231V55.7319Z" fill="#DAB0C3" style="user-select: auto !important;"></path>
                            <path d="M163.407 133.927C163.407 145.564 174.425 159.551 199.289 159.551C221.042 159.551 230.885 143.903 230.885 133.547" fill="#FFF0A0" style="user-select: auto !important;"></path>
                            <path d="M163.407 126.249C163.407 137.886 174.425 152.296 199.289 152.296C221.042 152.296 230.885 136.843 230.885 126.488" fill="#FFF0A0" style="user-select: auto !important;"></path>
                            <g class="bear" style="user-select: auto !important;">
                            <path d="M73.1165 187.401C64.7227 186.314 57.6984 179.184 55.9136 170.887C54.1288 162.59 57.2478 153.613 63.1941 147.579C69.2288 141.447 78.3207 138.204 86.7145 140.015C95.1084 141.827 102.318 149.036 103.308 157.598" fill="#FFC8E1" style="user-select: auto !important;"></path>
                            <path d="M170.821 187.401C179.215 186.314 186.239 179.184 188.024 170.887C189.808 162.59 186.689 153.613 180.743 147.579C174.708 141.447 165.617 138.204 157.223 140.015C148.829 141.827 141.619 149.036 140.629 157.598" fill="#FFC8E1" style="user-select: auto !important;"></path>
                            <path d="M174.39 193.604C172.314 180.368 165.97 168.537 157.876 160.868C148.502 151.988 137.245 147.172 121.394 147.172C105.543 147.172 94.2777 151.988 84.912 160.868C76.8097 168.546 72.065 184.856 69.6882 193.604C66.3041 197.217 61.8687 207.422 61.8687 218.343C61.8687 234.274 76.3856 257.344 121.995 257.344C167.604 257.344 182.121 232.427 182.121 218.343C182.121 207.626 177.792 197.217 174.408 193.604H174.39Z" fill="#FFC8E1" style="user-select: auto !important;"></path>
                            <path d="M106.904 149.628C111.437 148.488 116.12 147.958 120.803 147.932C125.486 147.896 130.186 148.321 134.737 149.363C142.309 151.051 147.928 154.081 148.149 153.675C148.246 153.507 146.956 152.526 144.641 151.334C142.335 150.141 138.96 148.771 135.072 147.896C130.389 146.819 125.574 146.386 120.785 146.421C115.996 146.447 111.19 146.995 106.533 148.162C102.663 149.125 99.3234 150.565 97.0527 151.828C94.7731 153.083 93.5096 154.099 93.6068 154.258C93.8365 154.665 99.3676 151.466 106.904 149.619V149.628Z" fill="#DAB0C3" style="user-select: auto !important;"></path>
                            <path d="M172.986 190.342L173.339 192.118L173.498 193.011L173.684 194.106L174.462 195.016L175.027 195.803C175.38 196.35 175.743 196.898 176.052 197.473C176.706 198.612 177.262 199.823 177.784 201.042C178.8 203.498 179.613 206.052 180.205 208.65C181.459 213.916 181.654 218.333 182.113 218.342C182.493 218.378 182.97 213.774 181.68 208.314C181.062 205.637 180.231 203.013 179.18 200.468C178.65 199.196 178.066 197.95 177.377 196.739C177.05 196.13 176.662 195.538 176.282 194.954L175.654 194.097L175.115 193.461L174.833 191.844L174.47 190.033C173.896 187.32 173.154 184.908 172.429 183.221C171.714 181.533 171.051 180.588 170.874 180.676C170.68 180.773 170.98 181.842 171.422 183.565C171.873 185.288 172.438 187.683 172.995 190.342H172.986Z" fill="#DAB0C3" style="user-select: auto !important;"></path>
                            <path d="M118.301 173.829C116.057 174.342 113.601 174.112 111.471 173.175C110.393 172.716 109.404 172.08 108.511 171.32C107.61 170.551 106.895 169.694 106.426 168.66C105.631 166.964 105.578 165.188 105.711 163.925C105.825 162.643 106.064 161.839 105.852 161.742C105.693 161.663 105.083 162.334 104.668 163.712C104.235 165.056 104.094 167.211 105.066 169.297C105.622 170.534 106.541 171.629 107.54 172.469C108.538 173.326 109.669 174.041 110.879 174.563C113.309 175.623 116.057 175.897 118.664 175.296C119.794 175.031 120.758 174.448 121.5 173.812C122.233 173.149 122.746 172.416 123.055 171.753C123.682 170.392 123.461 169.411 123.276 169.429C123.046 169.411 122.878 170.216 122.127 171.223C121.403 172.212 120.077 173.414 118.301 173.847V173.829Z" fill="#DAB0C3" style="user-select: auto !important;"></path>
                            <path d="M134.921 171.744C133.472 172.071 131.917 172.08 130.432 171.85C128.948 171.612 127.543 171.046 126.227 170.26C124.044 168.97 122.401 167.636 122.092 167.919C121.774 168.184 123.046 170.119 125.458 171.55C126.889 172.407 128.506 173.061 130.194 173.335C131.873 173.591 133.578 173.591 135.266 173.211C136.653 172.893 137.872 172.195 138.482 171.4C139.109 170.605 139.109 169.933 138.932 169.88C138.72 169.792 138.385 170.207 137.748 170.622C137.121 171.055 136.123 171.462 134.921 171.744Z" fill="#DAB0C3" style="user-select: auto !important;"></path>
                            <path d="M167.365 171.937C170.316 171.345 172.729 168.783 173.374 165.823C174.045 162.713 172.87 159.347 170.643 157.076C168.382 154.778 164.971 153.559 161.817 154.24C159.466 154.743 157.372 156.378 156.303 158.507C157.028 159.126 157.752 159.762 158.45 160.433C162.091 163.888 165.024 167.838 167.365 171.937Z" fill="#50BE82" style="user-select: auto !important;"></path>
                            <path d="M85.4856 160.442C86.1925 159.77 86.9081 159.134 87.6327 158.515C86.5636 156.386 84.4607 154.751 82.1192 154.248C78.9649 153.567 75.5632 154.787 73.2925 157.084C71.0659 159.346 69.8907 162.712 70.5622 165.831C71.1984 168.791 73.6194 171.354 76.5705 171.946C78.9119 167.846 81.8453 163.896 85.4856 160.442Z" fill="#50BE82" style="user-select: auto !important;"></path>
                            <path d="M80.6407 206.212C80.3845 208.014 76.8944 208.182 77.3097 205.779C77.7249 203.375 80.8969 204.409 80.6407 206.212Z" fill="#656564" style="user-select: auto !important;"></path>
                            <path d="M89.5386 206.167C89.2824 207.97 85.7923 208.137 86.2076 205.734C86.6229 203.331 89.7949 204.365 89.5386 206.167Z" fill="#656564" style="user-select: auto !important;"></path>
                            <path d="M163.483 205.796C163.757 207.59 167.256 207.731 166.805 205.328C166.355 202.925 163.2 203.994 163.483 205.796Z" fill="#656564" style="user-select: auto !important;"></path>
                            <path d="M154.586 205.84C154.86 207.634 158.359 207.775 157.908 205.372C157.466 202.977 154.303 204.038 154.586 205.84Z" fill="#656564" style="user-select: auto !important;"></path>
                            <path d="M85.544 211.857C85.2878 213.659 81.7977 213.827 82.213 211.424C82.6283 209.021 85.8003 210.055 85.544 211.857Z" fill="#656564" style="user-select: auto !important;"></path>
                            <path d="M159.49 211.478C159.763 213.272 163.262 213.413 162.812 211.01C162.37 208.615 159.207 209.675 159.49 211.478Z" fill="#656564" style="user-select: auto !important;"></path>
                            <path d="M106.151 179.484C118.795 178.344 115.543 202.554 104.755 203.216C91.5457 204.02 94.2052 180.562 106.151 179.484Z" fill="white" style="user-select: auto !important;"></path>
                            <path d="M111.753 181.313C110.436 179.996 108.589 179.263 106.151 179.484C102.245 179.837 99.3385 182.576 97.6421 186.075C100.178 185.766 103.076 185.633 105.797 185.66C109.199 185.695 112.327 185.996 114.147 186.543C113.82 184.449 113.043 182.603 111.761 181.313H111.753Z" fill="#64D296" style="user-select: auto !important;"></path>
                            <path d="M105.797 185.669C104.701 187.347 103.871 189.335 103.553 191.288C102.678 196.563 104.419 201.493 107.246 202.606C112.344 200.362 115.074 192.49 114.156 186.543C112.335 186.004 109.208 185.704 105.806 185.66L105.797 185.669Z" fill="#64D296" style="user-select: auto !important;"></path>
                            <path d="M110.136 184.944C107.326 184.706 104.526 184.679 101.725 184.812C99.4009 184.918 97.5631 185.572 97.6338 186.075C97.7045 186.579 99.56 186.764 101.804 186.658C104.526 186.535 107.265 186.552 109.96 186.791C112.195 186.968 113.962 187.012 114.13 186.544C114.307 186.04 112.469 185.121 110.127 184.944H110.136Z" fill="#70706F" style="user-select: auto !important;"></path>
                            <path d="M139.594 179.315C152.238 178.175 148.987 202.385 138.198 203.047C124.989 203.851 127.649 180.393 139.594 179.315Z" fill="white" style="user-select: auto !important;"></path>
                            <path d="M145.205 181.144C143.889 179.827 142.042 179.094 139.603 179.315C135.698 179.668 132.791 182.407 131.095 185.906C133.631 185.597 136.529 185.464 139.25 185.491C142.652 185.526 145.78 185.827 147.6 186.374C147.273 184.28 146.495 182.434 145.214 181.144H145.205Z" fill="#64D296" style="user-select: auto !important;"></path>
                            <path d="M139.24 185.491C138.144 187.17 137.314 189.158 136.996 191.111C136.121 196.386 137.862 201.316 140.689 202.429C145.787 200.185 148.517 192.312 147.598 186.366C145.778 185.827 142.651 185.527 139.249 185.482L139.24 185.491Z" fill="#64D296" style="user-select: auto !important;"></path>
                            <path d="M145.241 181.886C141.697 181.144 137.863 185.924 136.997 191.119C136.104 196.482 137.668 201.112 140.575 202.12" fill="#64D296" style="user-select: auto !important;"></path>
                            <path d="M151.866 220.639C150.859 207.554 139.92 198.833 122.267 198.93C104.613 199.018 93.7629 207.845 92.8881 220.94C92.1106 232.505 100.054 237.126 104.109 239.618C108.165 242.11 115.94 243.682 122.487 243.576C129.043 243.612 136.792 241.959 140.83 239.432C144.859 236.906 152.758 232.205 151.866 220.648V220.639Z" fill="white" style="user-select: auto !important;"></path>
                            <path d="M126.092 213.483C123.75 214.234 121.152 214.243 118.811 213.492C117.954 213.2 117.159 212.935 116.319 212.644C115.666 212.423 115.171 212.343 115.012 212.547C114.862 212.741 115.082 213.209 115.639 213.757C116.205 214.296 117.123 214.879 118.254 215.25C120.976 216.116 123.945 216.107 126.666 215.233C127.788 214.861 128.716 214.269 129.272 213.73C129.829 213.174 130.05 212.714 129.891 212.52C129.732 212.317 129.237 212.396 128.583 212.617C127.744 212.909 126.949 213.174 126.092 213.474V213.483Z" fill="#70706F" style="user-select: auto !important;"></path>
                            <path d="M131.075 213.05C130.553 212.573 130.147 211.963 129.899 211.3C129.696 210.77 129.254 210.346 128.733 210.381C128.23 210.408 127.867 211.141 128.159 211.945C128.512 212.882 129.078 213.73 129.811 214.41C130.438 214.985 131.26 214.932 131.472 214.472C131.693 214.004 131.472 213.43 131.066 213.05H131.075Z" fill="#70706F" style="user-select: auto !important;"></path>
                            <path d="M143.586 184.776C140.777 184.537 137.976 184.511 135.175 184.643C132.851 184.749 131.022 185.403 131.084 185.907C131.155 186.41 133.01 186.596 135.254 186.49C137.976 186.366 140.715 186.384 143.41 186.622C145.645 186.799 147.412 186.843 147.58 186.375C147.757 185.871 145.919 184.953 143.578 184.776H143.586Z" fill="#70706F" style="user-select: auto !important;"></path>
                            <path d="M116.63 200.23C116.727 200.999 117.275 201.909 118.158 202.006C118.22 202.819 118.538 203.42 119.351 203.835C120.155 204.259 121.534 204.127 122.011 203.773C122.488 204.127 123.866 204.242 124.67 203.809C125.474 203.376 125.792 202.784 125.845 201.971C126.729 201.856 127.268 200.946 127.356 200.177C127.471 199.205 126.208 197.818 124.494 198.171C124.034 197.429 122.762 196.669 121.984 196.669C121.207 196.669 119.943 197.447 119.493 198.198C117.787 197.968 116.524 199.267 116.648 200.239L116.63 200.23Z" fill="#656564" style="user-select: auto !important;"></path>
                            <path d="M115.737 200.478C116.028 201.706 116.7 202.528 117.91 202.899L117.265 202.254C117.636 204.71 120.367 205.673 122.469 204.569H121.533C123.636 205.638 126.375 204.683 126.719 202.209L126.074 202.854C128.981 201.927 128.805 198.145 125.906 197.297C125.129 197.067 124.952 197.102 124.254 196.634C123.627 196.21 122.982 195.83 122.204 195.759C120.764 195.636 119.492 196.634 118.67 197.712L119.465 197.253C117.601 197.2 115.781 198.189 115.693 200.213C115.64 201.405 117.486 201.405 117.548 200.213C117.592 199.267 118.918 199.258 119.465 199.099C119.704 199.029 119.819 199.02 120.022 198.905C120.746 198.49 121.126 197.509 122.134 197.606C123.017 197.686 123.318 198.649 123.998 198.958C124.307 199.099 124.634 198.976 124.935 199.082C125.465 198.94 125.756 199.196 125.809 199.859C126.437 200.442 126.357 200.84 125.571 201.07C125.288 201.158 124.97 201.397 124.926 201.715C124.661 203.579 123.185 202.837 121.992 202.837C120.782 202.837 119.359 203.862 119.041 201.75C118.997 201.432 118.679 201.193 118.396 201.105C118.105 200.725 117.804 200.354 117.513 199.974C117.239 198.817 115.454 199.303 115.728 200.469L115.737 200.478Z" fill="#656564" style="user-select: auto !important;"></path>
                            <path d="M55.9123 170.895C51.521 155.229 65.2074 138.778 81.1999 138.857C86.3687 138.76 91.5817 140.66 95.3899 144.123C91.1841 141.252 86.1567 139.9 81.2441 140.235C66.0645 141.004 53.7388 155.768 55.9123 170.895Z" fill="#D7AABE" style="user-select: auto !important;"></path>
                            </g>
                            <g class="bunny" style="user-select: auto !important;">
                            <path d="M253.847 185.236C242.846 171.629 244.666 150.733 252.159 139.405C251.346 118.439 269.565 103.241 281.997 105.786C298.369 95.4041 311.817 108.666 305.579 120.842C309.043 129.2 304.13 141.888 298.369 146.951C301.638 155.672 291.831 174.995 282.288 182.143" fill="white" style="user-select: auto !important;"></path>
                            <path d="M252.159 139.414C251.346 118.447 269.565 103.25 281.996 105.794C298.369 95.4124 311.817 108.675 305.579 120.85C309.042 129.209 304.13 141.897 298.369 146.959C301.638 155.68 291.831 175.004 282.288 182.152" fill="white" style="user-select: auto !important;"></path>
                            <path d="M253.847 185.236C242.846 171.629 244.666 150.733 252.159 139.405L253.847 185.236Z" fill="white" style="user-select: auto !important;"></path>
                            <path d="M267.436 175.976C270.104 168.174 271.959 154.32 270.378 148.117C273.046 145.051 275.723 140.033 277.597 134.74C277.597 134.74 278.401 139.476 281.608 141.985C281.608 141.985 273.055 154.249 276.96 174.748L267.444 175.985L267.436 175.976Z" fill="#FFC8E1" style="user-select: auto !important;"></path>
                            <path d="M287.104 170.727C284.56 157.191 292.741 136.86 304.97 133.079C309.043 120.974 324.841 116.547 333.5 120.488C346.718 115.125 360.89 129.147 348.167 143.169C349.121 153.904 343.802 168.183 329.992 171.973C329.63 180.747 319.814 190.546 311.764 191.579" fill="white" style="user-select: auto !important;"></path>
                            <path d="M329.992 171.964C329.629 180.738 319.813 190.537 311.764 191.571L329.992 171.964Z" fill="white" style="user-select: auto !important;"></path>
                            <path d="M333.499 120.488C346.718 115.125 360.89 129.147 348.167 143.169C349.121 153.905 343.802 168.183 329.992 171.973" fill="white" style="user-select: auto !important;"></path>
                            <path d="M287.104 170.727C284.559 157.191 292.741 136.86 304.969 133.079C309.043 120.974 324.841 116.547 333.5 120.488" fill="white" style="user-select: auto !important;"></path>
                            <path d="M314.07 121.566C311.101 123.21 308.433 125.48 306.498 128.325C306.03 129.041 305.632 129.81 305.199 130.552L304.404 132.478L304.333 132.505L304.024 132.611C303.821 132.69 303.609 132.743 303.414 132.84C303.025 133.017 302.619 133.185 302.239 133.379C301.47 133.768 300.737 134.219 300.03 134.696C297.203 136.649 294.941 139.246 293.068 142.038C291.186 144.839 289.719 147.879 288.562 151.024C286.644 156.255 286.017 161.326 286.114 164.958C286.202 168.607 286.927 170.781 287.104 170.736C287.342 170.692 286.998 168.501 287.183 164.976C287.36 161.459 288.129 156.599 289.984 151.545C291.097 148.506 292.52 145.564 294.322 142.887C296.116 140.218 298.281 137.753 300.896 135.951C301.55 135.5 302.23 135.094 302.928 134.74C303.282 134.563 303.644 134.413 303.997 134.245C304.174 134.157 304.368 134.113 304.545 134.042L305.34 133.759C305.588 133.742 305.588 133.485 305.694 133.3L305.871 132.876L306.1 132.328L306.551 131.232C306.957 130.552 307.32 129.845 307.753 129.191C309.528 126.567 312.011 124.447 314.803 122.909C317.118 121.628 319.53 120.78 321.775 120.276C324.028 119.808 326.113 119.667 327.854 119.702C331.361 119.826 333.402 120.762 333.5 120.515C333.544 120.418 333.067 120.135 332.139 119.684C331.679 119.454 331.07 119.313 330.372 119.092C329.674 118.889 328.843 118.783 327.933 118.642C326.104 118.465 323.895 118.5 321.501 118.916C319.106 119.366 316.544 120.223 314.07 121.584V121.566Z" fill="#E3DADA" style="user-select: auto !important;"></path>
                            <path d="M257.46 182.144C253.537 183.293 249.19 188.117 246.045 194.125C243.862 198.287 242.254 203.014 241.76 207.493C241.76 207.493 236.493 216.877 239.091 227.992C241.98 240.371 249.959 243.993 250.056 244.108C260.076 255.285 275.388 257.132 286.636 257.132C297.883 257.132 313.249 255.639 323.215 244.108C323.312 243.993 331.264 240.371 334.18 227.992C336.795 216.886 331.512 207.493 331.512 207.493C331.132 203.641 329.912 199.382 328.057 195.548C325.76 190.794 322.508 186.677 318.691 184.733" fill="white" style="user-select: auto !important;"></path>
                            <path d="M297.256 183.565C300.366 180.216 309.617 170.17 315.785 165.753C316.553 160.928 317.711 156.511 321.148 151.969C321.148 151.969 317.622 152.455 315.21 151.271C311.782 160.593 306.684 168.766 293.28 176.479L297.256 183.565Z" fill="#FFC8E1" style="user-select: auto !important;"></path>
                            <path d="M269.663 185.165C265.087 183.769 264.866 177.028 267.198 174.713C269.531 172.407 271.925 170.984 276.016 171.779C273.286 168.077 274.885 164.207 276.432 162.148C277.978 160.081 282.829 161.079 285.727 161.362C293.484 162.131 298.768 166.761 300.155 173.555C304.281 174.271 306.031 177.231 306.349 179.263C306.676 181.295 305.262 183.089 302.258 185.174" fill="white" style="user-select: auto !important;"></path>
                            <path d="M299.882 170.198C298.627 167.202 296.339 164.631 293.52 163.014C292.124 162.193 290.604 161.592 289.04 161.194C287.494 160.779 285.851 160.629 284.366 160.452C282.829 160.266 281.256 160.063 279.604 160.143C278.782 160.196 277.916 160.302 277.068 160.708C276.644 160.894 276.229 161.221 275.902 161.609C275.61 161.963 275.407 162.29 275.186 162.652C274.347 164.075 273.781 165.718 273.79 167.441C273.79 168.298 273.931 169.155 274.205 169.968L274.444 170.56L274.497 170.701V170.728L274.532 170.772L274.559 170.825H274.232C274.011 170.798 273.79 170.798 273.569 170.807C272.085 170.825 270.618 171.284 269.425 172C268.824 172.354 268.285 172.76 267.791 173.193C267.543 173.405 267.314 173.626 267.084 173.838C266.863 174.05 266.642 174.271 266.412 174.562C265.538 175.676 265.281 176.922 265.166 178.044C265.078 179.175 265.202 180.226 265.467 181.154C265.75 182.073 266.165 182.85 266.624 183.46C267.11 184.052 267.632 184.476 268.091 184.732C268.321 184.847 268.533 184.944 268.727 185.041C268.922 185.103 269.09 185.139 269.222 185.165C269.496 185.218 269.637 185.218 269.655 185.165C269.673 185.112 269.558 185.015 269.337 184.874C269.213 184.803 269.081 184.723 268.93 184.635C268.78 184.52 268.612 184.388 268.427 184.246C268.065 183.946 267.676 183.522 267.314 182.965C266.969 182.4 266.677 181.702 266.501 180.889C266.324 180.076 266.28 179.148 266.403 178.176C266.536 177.231 266.836 176.179 267.481 175.446C267.623 175.269 267.826 175.075 268.047 174.872C268.268 174.677 268.48 174.474 268.71 174.297C269.16 173.926 269.646 173.573 270.159 173.281C271.184 172.698 272.35 172.336 273.604 172.327C273.79 172.318 273.976 172.327 274.17 172.327H274.453C274.656 172.354 274.868 172.398 275.08 172.424C275.928 172.53 276.759 172.68 277.589 172.822C277.156 172.15 276.644 171.435 276.299 170.816L276.017 170.339L275.875 170.1C275.84 170.039 275.84 170.012 275.822 169.968L275.628 169.482C275.407 168.828 275.292 168.139 275.292 167.45C275.283 166.063 275.752 164.667 276.476 163.43C276.662 163.129 276.865 162.802 277.068 162.564C277.236 162.378 277.439 162.193 277.722 162.069C278.27 161.804 278.968 161.689 279.683 161.654C281.132 161.574 282.643 161.768 284.172 161.954C285.753 162.14 287.211 162.281 288.652 162.661C290.092 163.023 291.479 163.571 292.751 164.322C295.305 165.798 297.346 168.086 298.486 170.798C298.759 171.39 298.945 172.009 299.139 172.61C299.237 173.007 299.334 173.405 299.44 173.803L299.502 174.041C299.537 174.112 299.502 174.236 299.617 174.218L300.094 174.315L300.721 174.448C301.87 174.739 302.903 175.252 303.707 175.95C304.52 176.639 305.112 177.505 305.466 178.388C305.837 179.29 305.925 180.111 305.678 180.853C305.439 181.596 304.989 182.232 304.556 182.744C304.114 183.266 303.681 183.69 303.327 184.025C302.612 184.706 302.197 185.095 302.258 185.183C302.311 185.262 302.833 185.041 303.69 184.485C304.114 184.202 304.626 183.831 305.165 183.327C305.704 182.815 306.296 182.161 306.685 181.216C306.871 180.747 306.994 180.2 306.977 179.625C306.959 179.042 306.835 178.512 306.641 177.955C306.27 176.869 305.589 175.791 304.626 174.907C303.672 174.015 302.426 173.378 301.083 173.007L300.765 172.937L300.712 172.707L300.588 172.203C300.385 171.541 300.182 170.86 299.882 170.206V170.198Z" fill="#E3DADA" style="user-select: auto !important;"></path>
                            <path d="M275.751 186.508C276.988 188.337 282.36 190.087 289.482 186.058C292.504 188.885 298.114 188.452 300.076 186.102" fill="white" style="user-select: auto !important;"></path>
                            <path d="M294.085 187.215C293.087 187.118 292.097 186.844 291.231 186.376C291.01 186.27 290.816 186.12 290.604 185.996C290.489 185.934 290.427 185.864 290.304 185.766L289.676 185.254C289.579 185.104 289.447 185.227 289.332 185.28L288.969 185.475L288.466 185.74C288.227 185.864 287.998 185.996 287.759 186.102C285.851 186.986 283.809 187.648 281.742 187.728C280.037 187.834 278.508 187.569 277.483 187.207C276.432 186.862 275.946 186.394 275.751 186.5C275.672 186.553 275.69 186.774 275.884 187.101C276.087 187.41 276.458 187.825 277.015 188.161C278.111 188.868 279.895 189.345 281.821 189.23C284.154 189.133 286.372 188.408 288.422 187.454C288.678 187.33 288.925 187.198 289.173 187.065L289.358 186.968C289.438 186.924 289.376 186.959 289.394 186.95L289.402 186.959C289.491 187.03 289.623 187.154 289.747 187.224C290.003 187.383 290.251 187.569 290.525 187.701C291.594 188.276 292.76 188.594 293.944 188.709C295.905 188.921 297.69 188.408 298.786 187.71C299.908 187.012 300.235 186.182 300.076 186.084C299.89 185.943 299.351 186.411 298.309 186.756C297.275 187.109 295.755 187.383 294.085 187.207V187.215Z" fill="#E3DADA" style="user-select: auto !important;"></path>
                            <path d="M288.872 229.679C287.529 227.92 288.21 223.503 290.401 222.769C292.574 222.045 294.677 224.704 295.198 227.081" fill="#FFC8E1" style="user-select: auto !important;"></path>
                            <path d="M288.872 229.679C287.529 227.92 288.21 223.503 290.401 222.769C292.574 222.045 294.677 224.704 295.198 227.081" fill="#FFC8E1" style="user-select: auto !important;"></path>
                            <path d="M292.91 227.506C289.137 229.255 284.595 229.087 280.761 227.462C277.562 226.119 275.45 224.122 275.124 224.422C274.982 224.555 275.327 225.253 276.184 226.145C277.032 227.038 278.419 228.098 280.169 228.849C282.272 229.75 284.551 230.227 286.84 230.263C289.137 230.307 291.443 229.847 293.546 228.884C295.295 228.089 296.638 226.923 297.407 225.942C298.184 224.961 298.441 224.219 298.282 224.104C297.919 223.848 296.082 226.101 292.918 227.506H292.91Z" fill="#717170" style="user-select: auto !important;"></path>
                            <path d="M299.439 224.581C299.032 223.989 298.511 223.441 297.84 223.07C297.256 222.743 296.656 222.981 296.594 223.388C296.532 223.803 296.77 224.192 297.097 224.377C297.522 224.607 297.893 224.987 298.193 225.429C298.44 225.791 298.882 225.968 299.271 225.826C299.66 225.685 299.783 225.084 299.448 224.581H299.439Z" fill="#717170" style="user-select: auto !important;"></path>
                            <path d="M289.81 217.335C289.465 216.487 287.963 216.513 287.963 216.513C287.963 216.513 287.574 215.78 286.744 215.78C285.789 215.78 285.454 216.513 285.454 216.513C285.454 216.513 284.022 216.487 283.678 217.335C283.307 218.263 284.447 218.722 284.447 218.722C284.447 218.722 284.349 219.402 285.153 219.774C285.975 220.162 286.744 219.8 286.744 219.8C286.744 219.8 287.592 220.162 288.414 219.774C289.218 219.394 289.032 218.722 289.032 218.722C289.032 218.722 290.181 218.263 289.801 217.335H289.81Z" fill="#FFC8E1" style="user-select: auto !important;"></path>
                            <path d="M290.462 216.955C289.959 216.072 288.943 215.762 287.971 215.762L288.625 216.133C287.812 214.755 285.594 214.631 284.816 216.133L285.47 215.762C284.516 215.762 283.403 216.098 283.005 217.043C282.607 217.989 283.191 218.978 284.083 219.376L283.712 218.722C283.668 219.323 284.021 219.906 284.498 220.251C284.905 220.542 285.444 220.701 285.947 220.71C286.151 220.71 287.273 220.587 286.619 220.56C287.547 220.604 288.351 220.86 289.172 220.198C289.685 219.791 289.906 219.164 289.773 218.528L289.429 219.376C290.339 218.978 290.798 218.095 290.551 217.141C290.303 216.186 288.845 216.602 289.093 217.538C289.172 217.83 288.881 217.98 288.669 218.077C288.351 218.219 288.262 218.625 288.324 218.925C288.43 219.42 286.946 219.058 286.663 219.067C286.318 219.076 285.161 219.57 285.223 218.731C285.241 218.492 285.073 218.174 284.852 218.077C283.986 217.697 284.922 217.273 285.47 217.273C285.726 217.273 286 217.132 286.124 216.902C286.575 216.036 287.176 216.929 287.6 217.176C288.094 217.468 288.819 217.114 289.172 217.724C289.658 218.563 290.957 217.803 290.471 216.964L290.462 216.955Z" fill="#F7C6DD" style="user-select: auto !important;"></path>
                            <path d="M276.749 215.56C279.885 215.56 280.071 205.046 276.97 205.046C273.603 205.046 273.294 215.56 276.749 215.56Z" fill="#656564" style="user-select: auto !important;"></path>
                            <path d="M276.749 216.311C281.114 215.94 281.37 204.339 276.97 204.286C272.57 204.233 272.049 215.949 276.749 216.311C277.721 216.382 277.712 214.88 276.749 214.8C274.081 214.597 274.532 205.62 276.97 205.797C279.232 205.956 279.055 214.606 276.749 214.8C275.786 214.88 275.777 216.391 276.749 216.311Z" fill="#656564" style="user-select: auto !important;"></path>
                            <path d="M296.391 215.56C299.527 215.56 299.713 205.046 296.612 205.046C293.245 205.046 292.936 215.56 296.391 215.56Z" fill="#656564" style="user-select: auto !important;"></path>
                            <path d="M296.391 216.311C300.756 215.94 301.012 204.339 296.612 204.286C292.026 204.233 291.691 215.949 296.391 216.311C297.363 216.382 297.354 214.88 296.391 214.8C293.723 214.597 294.173 205.62 296.612 205.797C298.874 205.956 298.697 214.606 296.391 214.8C295.428 214.88 295.419 216.391 296.391 216.311Z" fill="#656564" style="user-select: auto !important;"></path>
                            </g>
                            <g class="puppy" style="user-select: auto !important;">
                            <path d="M195.418 175.401C192.953 159.303 176.687 155.38 166.808 161.909C154.253 170.206 157.248 182.947 161.914 186.861C166.985 191.111 172.048 190.449 176.245 187.904C180.239 185.483 181.29 183.99 183.693 182.399C185.346 181.312 187.404 180.332 189.869 181.975" fill="#B4DCE6" style="user-select: auto !important;"></path>
                            <path d="M224.39 175.402C226.855 159.303 243.122 155.38 253 161.91C265.555 170.207 262.56 182.948 257.895 186.862C252.823 191.112 247.76 190.449 243.563 187.904C239.366 185.36 238.518 183.99 236.115 182.4C234.463 181.313 232.404 180.332 229.939 181.976" fill="#B4DCE6" style="user-select: auto !important;"></path>
                            <path d="M244.023 204.162C244.023 186.906 234.825 175.278 220.609 171.576C220.256 170.49 219.575 169.588 218.665 169.049C216.907 168.007 215.202 168.183 213.735 168.846C213.205 166.849 211.19 166.408 210.006 166.248C208.822 166.081 207.356 166.425 206.278 166.938C204.351 167.865 202.69 169.332 201.524 171.117C186.362 174.13 176.431 185.386 176.431 204.162C160.668 211.761 156.277 241.033 180.336 247.377C189.852 251.344 201.029 255.453 211.385 255.453C223.092 255.453 233.535 251.742 239.323 247.925C263.373 241.581 259.927 212.211 244.032 204.162H244.023Z" fill="#B4DCE6" style="user-select: auto !important;"></path>
                            <path d="M224.965 253.031C220.053 254.233 214.963 254.825 209.918 254.666C204.873 254.471 199.872 253.402 194.995 251.953C190.948 250.752 187.343 249.47 184.701 248.578C182.068 247.686 180.407 247.182 180.328 247.376C180.248 247.562 181.759 248.41 184.313 249.568C186.866 250.716 190.453 252.174 194.562 253.393C199.519 254.86 204.634 255.965 209.856 256.168C215.069 256.336 220.274 255.726 225.319 254.489C229.507 253.473 233.138 251.962 235.612 250.601C238.095 249.25 239.42 248.066 239.305 247.915C239.182 247.721 237.68 248.569 235.144 249.638C232.608 250.716 229.038 252.024 224.956 253.014L224.965 253.031Z" fill="#5DA279" style="user-select: auto !important;"></path>
                            <path d="M200.756 200.856C200.756 201.828 200.986 202.765 201.666 202.765C202.346 202.765 202.576 201.784 202.576 200.856C202.576 199.929 202.249 198.939 201.666 198.939C201.083 198.939 200.756 199.884 200.756 200.856Z" fill="#656564" style="user-select: auto !important;"></path>
                            <path d="M199.996 200.857C200.014 201.908 200.296 203.516 201.657 203.516C203.018 203.516 203.327 201.908 203.318 200.857C203.309 199.805 202.982 198.303 201.754 198.197C200.367 198.082 200.023 199.814 199.987 200.857C199.961 201.829 201.472 201.829 201.498 200.857C201.498 200.609 201.516 200.371 201.578 200.123C201.604 200.035 201.772 199.744 201.763 199.664C201.498 199.576 201.436 199.611 201.595 199.761L201.675 199.947C201.772 200.194 201.798 200.477 201.807 200.742C201.807 200.857 201.807 201.952 201.648 201.979C201.604 201.979 201.507 201.007 201.507 200.857C201.489 199.885 199.978 199.885 199.996 200.857Z" fill="#656564" style="user-select: auto !important;"></path>
                            <path d="M217.976 200.856C217.976 201.828 218.206 202.765 218.886 202.765C219.566 202.765 219.796 201.784 219.796 200.856C219.796 199.929 219.469 198.939 218.886 198.939C218.303 198.939 217.976 199.884 217.976 200.856Z" fill="#656564" style="user-select: auto !important;"></path>
                            <path d="M217.216 200.857C217.234 201.908 217.517 203.516 218.877 203.516C220.211 203.516 220.547 201.908 220.538 200.857C220.53 199.805 220.203 198.303 218.974 198.197C217.587 198.082 217.243 199.814 217.207 200.857C217.181 201.829 218.692 201.829 218.718 200.857C218.718 200.609 218.736 200.371 218.798 200.123C218.824 200.035 218.992 199.744 218.983 199.664C218.718 199.576 218.656 199.611 218.815 199.761L218.895 199.947C218.992 200.194 219.019 200.477 219.028 200.742C219.028 200.857 219.028 201.952 218.868 201.979C218.824 201.979 218.727 201.007 218.727 200.857C218.709 199.885 217.199 199.885 217.216 200.857Z" fill="#656564" style="user-select: auto !important;"></path>
                            <path d="M196.126 188.673C197.399 186.182 198.362 185.395 201.083 184.715L196.126 188.673Z" fill="white" style="user-select: auto !important;"></path>
                            <path d="M199.218 184.503C198.661 184.724 198.087 185.024 197.583 185.422C197.08 185.828 196.664 186.314 196.329 186.809C195.763 187.648 195.754 188.488 196.116 188.665C196.496 188.859 197.106 188.338 197.566 187.657C198.122 186.818 198.82 186.252 199.766 185.899C200.525 185.599 201.17 185.113 201.064 184.706C200.967 184.309 200.146 184.132 199.209 184.503H199.218Z" fill="#717170" style="user-select: auto !important;"></path>
                            <path d="M224.374 188.673C223.102 186.182 222.139 185.395 219.417 184.715L224.374 188.673Z" fill="white" style="user-select: auto !important;"></path>
                            <path d="M220.724 185.908C221.67 186.27 222.368 186.827 222.924 187.666C223.393 188.347 223.994 188.868 224.374 188.673C224.736 188.488 224.727 187.648 224.161 186.818C223.826 186.323 223.41 185.837 222.907 185.431C222.403 185.033 221.838 184.733 221.272 184.512C220.336 184.141 219.514 184.326 219.417 184.715C219.311 185.13 219.956 185.607 220.716 185.908H220.724Z" fill="#717170" style="user-select: auto !important;"></path>
                            <path d="M230.213 225.244C229.577 214.358 222.208 207.069 210.254 207.069C198.299 207.069 190.93 214.358 190.294 225.244C189.728 234.857 195.092 238.736 197.822 240.821C200.552 242.906 205.818 244.249 210.254 244.187C214.689 244.24 219.946 242.897 222.685 240.821C225.424 238.736 230.779 234.866 230.213 225.244Z" fill="white" style="user-select: auto !important;"></path>
                            <path d="M206.332 213.068C206.402 213.66 206.827 214.367 207.507 214.446C207.551 215.074 207.799 215.542 208.417 215.869C209.044 216.196 210.105 216.108 210.476 215.834C210.838 216.108 211.907 216.205 212.534 215.869C213.162 215.542 213.409 215.074 213.444 214.446C214.125 214.367 214.549 213.66 214.62 213.068C214.708 212.317 213.745 211.239 212.411 211.504C212.057 210.93 211.077 210.338 210.476 210.338C209.875 210.338 208.894 210.93 208.541 211.504C207.224 211.319 206.235 212.317 206.332 213.068Z" fill="#656564" style="user-select: auto !important;"></path>
                            <path d="M205.607 213.263C205.828 214.235 206.358 214.871 207.312 215.172L206.782 214.641C207.065 216.576 209.212 217.319 210.855 216.47H210.096C211.739 217.319 213.895 216.568 214.169 214.641L213.639 215.172C214.911 214.774 215.786 213.378 215.141 212.088C214.885 211.575 214.416 211.187 213.904 210.957C213.515 210.78 213.082 210.833 212.702 210.683C212.446 210.577 212.137 210.197 211.898 210.047C211.35 209.72 210.732 209.526 210.096 209.623C209.283 209.755 208.885 210.383 208.214 210.674C206.941 211.24 205.642 211.31 205.554 213.06C205.501 214.032 207.012 214.023 207.065 213.06C207.109 212.167 208.47 212.371 208.982 212.088C209.539 211.779 209.804 211.028 210.59 211.098C211.271 211.16 211.501 211.902 212.022 212.15C212.269 212.265 212.534 212.167 212.764 212.256C213.162 212.15 213.382 212.344 213.418 212.83C213.886 213.263 213.824 213.563 213.241 213.722C213.011 213.793 212.755 213.996 212.711 214.253C212.508 215.675 211.377 215.083 210.467 215.083C209.557 215.083 208.461 215.861 208.222 214.253C208.187 213.996 207.922 213.802 207.692 213.722C207.277 213.59 207.056 213.307 207.047 212.865C206.826 211.92 205.377 212.318 205.589 213.263H205.607Z" fill="#656564" style="user-select: auto !important;"></path>
                            <path d="M212.523 231.296C212.585 233.982 215.501 235.643 217.904 235.254C220.794 234.795 222.437 232.436 221.606 229.591C221.262 228.415 220.104 227.117 218.655 226.675" fill="#FFC8E1" style="user-select: auto !important;"></path>
                            <path d="M216.916 227.877C215.432 229.353 213.532 230.422 211.5 230.89C209.441 231.367 207.241 231.429 205.244 230.881C203.583 230.422 202.302 229.582 201.498 228.796C200.694 228.01 200.279 227.374 200.058 227.471C199.89 227.533 199.96 228.363 200.667 229.476C201.03 230.024 201.56 230.625 202.284 231.129C203 231.632 203.875 232.065 204.829 232.33C207.153 232.967 209.556 232.878 211.836 232.357C214.15 231.818 216.289 230.616 217.976 228.937C218.674 228.239 219.24 227.471 219.655 226.729C220.044 225.969 220.335 225.244 220.45 224.599C220.715 223.327 220.53 222.523 220.344 222.514C220.115 222.496 219.92 223.23 219.443 224.263C219.222 224.794 218.869 225.368 218.471 225.995C218.047 226.605 217.526 227.241 216.916 227.86V227.877Z" fill="#717170" style="user-select: auto !important;"></path>
                            <path d="M222.251 222.468C221.986 222.159 221.686 221.858 221.271 221.602C220.794 221.31 220.255 221.257 219.813 221.284C219.053 221.346 218.664 221.902 218.832 222.273C219 222.653 219.495 222.812 219.91 222.786C220.166 222.768 220.361 222.812 220.502 222.892C220.696 223.007 220.908 223.21 221.103 223.44C221.421 223.82 221.916 224.014 222.287 223.82C222.658 223.625 222.693 222.989 222.251 222.459V222.468Z" fill="#717170" style="user-select: auto !important;"></path>
                            </g>
                            <path d="M8.62459 427.958H399.221L406.501 251.263H407.04H0.548828L8.62459 427.958Z" fill="#FFF0A0" style="user-select: auto !important;"></path>
                            <path d="M237.963 236.649C232.688 235.589 227.298 236.649 223.464 240.21C219.629 243.762 218.374 250.265 221.617 254.462C226.247 260.452 240.154 260.7 245.561 255.761C253.24 248.745 247.337 238.531 237.963 236.658V236.649Z" fill="#B4DCE6" style="user-select: auto !important;"></path>
                            <path d="M183.023 236.649C188.298 235.589 193.688 236.649 197.522 240.21C201.357 243.762 202.612 250.265 199.369 254.462C194.739 260.452 180.832 260.7 175.424 255.761C167.746 248.745 173.648 238.531 183.023 236.658V236.649Z" fill="#B4DCE6" style="user-select: auto !important;"></path>
                            <path d="M223.083 241.722C224.505 240.034 226.467 238.735 228.569 237.958C230.69 237.18 232.996 236.906 235.276 237.048C237.564 237.189 239.8 237.772 241.788 238.824C243.776 239.875 245.525 241.404 246.744 243.277C247.743 244.832 248.291 246.537 248.361 248.11C248.423 248.507 248.379 248.887 248.344 249.258C248.317 249.63 248.308 250.001 248.202 250.336C248.123 250.681 248.043 251.017 247.964 251.335C247.84 251.635 247.716 251.936 247.593 252.218C247.398 252.802 247.054 253.252 246.815 253.685C246.585 254.127 246.311 254.463 246.099 254.745C245.684 255.32 245.472 255.682 245.543 255.753C245.613 255.832 245.958 255.611 246.532 255.143C246.824 254.904 247.177 254.622 247.495 254.189C247.822 253.765 248.255 253.323 248.538 252.704C248.697 252.404 248.865 252.086 249.042 251.759C249.156 251.397 249.28 251.026 249.404 250.646C249.554 250.266 249.589 249.842 249.651 249.417C249.713 248.985 249.784 248.543 249.74 248.083C249.74 246.246 249.139 244.24 248.008 242.482C246.629 240.361 244.686 238.673 242.486 237.507C240.277 236.341 237.812 235.705 235.355 235.563C232.899 235.404 230.381 235.705 228.039 236.562C225.698 237.428 223.551 238.832 221.907 240.776C220.547 242.384 219.76 244.275 219.372 246.033C219.009 247.809 219.089 249.471 219.407 250.787C219.734 252.112 220.282 253.084 220.723 253.685C221.192 254.277 221.519 254.533 221.598 254.471C221.81 254.321 220.794 253.022 220.458 250.584C220.291 249.373 220.335 247.907 220.723 246.343C221.139 244.796 221.872 243.144 223.065 241.739L223.083 241.722Z" fill="#9EBEC3" style="user-select: auto !important;"></path>
                            <path d="M199.069 240.759C197.425 238.815 195.278 237.41 192.937 236.544C190.595 235.687 188.077 235.387 185.621 235.546C183.173 235.696 180.699 236.323 178.491 237.49C176.29 238.656 174.347 240.343 172.968 242.464C171.837 244.222 171.237 246.228 171.228 248.066C171.183 248.525 171.254 248.967 171.316 249.4C171.378 249.833 171.413 250.248 171.563 250.628C171.687 251.008 171.811 251.379 171.926 251.741C172.102 252.068 172.27 252.386 172.429 252.687C172.712 253.305 173.154 253.756 173.472 254.171C173.79 254.604 174.143 254.896 174.435 255.125C175.009 255.603 175.354 255.815 175.425 255.735C175.495 255.656 175.283 255.293 174.868 254.728C174.656 254.445 174.382 254.118 174.152 253.668C173.914 253.235 173.569 252.784 173.375 252.201C173.26 251.918 173.136 251.627 173.004 251.317C172.924 250.999 172.845 250.663 172.765 250.319C172.65 249.983 172.65 249.612 172.624 249.241C172.588 248.87 172.544 248.49 172.606 248.092C172.677 246.52 173.225 244.814 174.223 243.259C175.442 241.386 177.192 239.857 179.18 238.806C181.177 237.755 183.403 237.171 185.692 237.03C187.971 236.889 190.268 237.163 192.398 237.94C194.51 238.718 196.471 240.017 197.885 241.704C199.078 243.109 199.811 244.761 200.226 246.307C200.615 247.871 200.659 249.338 200.491 250.549C200.155 252.987 199.131 254.286 199.351 254.436C199.431 254.498 199.749 254.242 200.226 253.65C200.668 253.049 201.216 252.077 201.543 250.752C201.87 249.435 201.94 247.774 201.578 245.998C201.189 244.24 200.403 242.358 199.042 240.741L199.069 240.759Z" fill="#9EBEC3" style="user-select: auto !important;"></path>
                            <path d="M81.8628 429.85C86.8107 425.344 92.8543 422.039 99.322 420.308C102.839 419.362 106.841 418.956 109.898 420.926C112.955 422.905 113.918 428.083 110.87 430.08" fill="#50BE82" style="user-select: auto !important;"></path>
                            <path d="M149.588 429.814C160.756 420.184 179.231 420.59 189.976 430.707L149.588 429.814Z" fill="#50BE82" style="user-select: auto !important;"></path>
                            <path d="M207.62 429.585C214.636 423.833 225.689 423.763 232.775 429.426L207.62 429.585Z" fill="#50BE82" style="user-select: auto !important;"></path>
                            <path d="M306.226 430.644C304.565 428.948 305.307 425.864 307.18 424.398C309.054 422.931 311.616 422.728 313.984 422.86C320.664 423.231 327.193 425.864 332.247 430.247" fill="#50BE82" style="user-select: auto !important;"></path>
                            <path d="M348.505 429.691C356.165 424.16 367.404 424.222 375.003 429.832L348.505 429.691Z" fill="#50BE82" style="user-select: auto !important;"></path>
                            <path d="M34.4941 429.797C36.7296 425.212 42.5611 423.312 47.6062 424.107C52.6513 424.902 57.078 427.8 61.2749 430.699" fill="#50BE82" style="user-select: auto !important;"></path>
                            <path d="M55.1526 425.979C52.8553 424.768 50.3725 423.788 47.7484 423.372C45.0977 422.957 42.3586 423.222 39.8405 424.194C38.7979 424.601 37.8701 425.148 37.0926 425.732C36.3416 426.35 35.7142 426.977 35.3166 427.596C34.4773 428.815 34.3271 429.734 34.4949 429.805C34.707 429.902 35.1929 429.195 36.1295 428.285C36.5889 427.817 37.2075 427.348 37.9055 426.863C38.63 426.403 39.4605 425.97 40.3883 425.599C42.6237 424.733 45.133 424.486 47.5098 424.866C49.9219 425.246 52.2457 426.156 54.4457 427.322C56.2659 428.285 57.9005 429.248 59.1198 429.902C60.3391 430.556 61.1431 430.892 61.2668 430.715C61.3817 430.547 60.7897 429.902 59.7118 429.01C58.6338 428.126 57.0522 426.995 55.1526 425.988V425.979Z" fill="#5DA279" style="user-select: auto !important;"></path>
                            <path d="M260.864 235.059C267.297 233.769 273.879 235.059 278.562 239.406C283.245 243.744 284.773 251.679 280.815 256.803C275.169 264.119 258.196 264.411 251.587 258.385C242.212 249.823 249.422 237.356 260.855 235.068L260.864 235.059Z" fill="white" style="user-select: auto !important;"></path>
                            <path d="M247.328 253.623C248.15 255.726 249.537 257.546 251.18 259.013C252.877 260.541 254.935 261.451 257.003 262.132C259.079 262.803 261.235 263.174 263.4 263.289C264.478 263.395 265.565 263.342 266.643 263.342C267.721 263.254 268.807 263.21 269.876 263.015C270.954 262.891 272.006 262.6 273.066 262.352C274.1 262.008 275.151 261.699 276.141 261.213C278.129 260.294 280.037 259.03 281.442 257.228C282.794 255.408 283.625 253.208 283.775 250.981C283.969 248.746 283.598 246.501 282.794 244.434C282.131 242.72 281.186 241.165 280.029 239.866C278.853 238.567 277.537 237.56 276.176 236.747C273.455 235.13 270.645 234.458 268.313 234.238C265.971 234.026 264.071 234.238 262.799 234.476C261.518 234.715 260.846 234.989 260.864 235.077C260.891 235.192 261.598 235.121 262.87 235.059C264.133 235.006 265.971 234.953 268.189 235.289C270.389 235.634 272.987 236.376 275.461 237.931C276.689 238.7 277.908 239.68 278.924 240.838C279.949 242.013 280.797 243.427 281.398 244.973C282.882 248.675 282.653 253.163 280.258 256.309C279.057 257.855 277.351 258.995 275.522 259.843C274.621 260.294 273.632 260.577 272.669 260.903C271.67 261.133 270.681 261.407 269.656 261.531C268.648 261.725 267.615 261.761 266.59 261.849C265.565 261.849 264.531 261.902 263.506 261.796C261.456 261.69 259.406 261.328 257.471 260.7C255.545 260.073 253.654 259.225 252.196 257.899C250.703 256.556 249.457 254.922 248.742 253.084C247.531 250.018 248.008 246.687 249.334 244.133C250.624 241.536 252.585 239.654 254.37 238.346C256.181 237.047 257.86 236.296 259.035 235.837C260.21 235.377 260.899 235.183 260.873 235.059C260.855 234.98 260.131 234.971 258.858 235.28C257.586 235.581 255.775 236.208 253.769 237.463C251.799 238.735 249.599 240.661 248.097 243.488C247.354 244.893 246.78 246.51 246.612 248.26C246.418 250.009 246.665 251.873 247.328 253.614V253.623Z" fill="#E3DADA" style="user-select: auto !important;"></path>
                            <path d="M315.149 235.06C321.581 233.77 328.164 235.06 332.847 239.407C337.53 243.745 339.058 251.679 335.1 256.804C329.454 264.12 312.481 264.411 305.871 258.386C296.497 249.824 303.707 237.357 315.14 235.068L315.149 235.06Z" fill="white" style="user-select: auto !important;"></path>
                            <path d="M301.614 253.623C302.435 255.726 303.822 257.546 305.466 259.013C307.162 260.541 309.221 261.451 311.289 262.132C313.365 262.803 315.521 263.174 317.686 263.289C318.763 263.395 319.85 263.342 320.928 263.342C322.006 263.254 323.093 263.21 324.162 263.015C325.24 262.891 326.291 262.6 327.352 262.352C328.385 262.008 329.437 261.699 330.426 261.213C332.414 260.294 334.323 259.03 335.728 257.228C337.08 255.408 337.91 253.208 338.06 250.981C338.255 248.746 337.884 246.501 337.08 244.434C336.417 242.72 335.472 241.165 334.314 239.866C333.139 238.567 331.823 237.56 330.462 236.747C327.74 235.13 324.931 234.458 322.598 234.238C320.257 234.026 318.357 234.238 317.085 234.476C315.804 234.715 315.132 234.989 315.15 235.077C315.176 235.192 315.883 235.121 317.155 235.059C318.419 235.006 320.257 234.953 322.474 235.289C324.674 235.634 327.272 236.376 329.746 237.931C330.974 238.7 332.194 239.68 333.21 240.838C334.235 242.013 335.083 243.427 335.684 244.973C337.168 248.675 336.938 253.163 334.544 256.309C333.342 257.855 331.637 258.995 329.808 259.843C328.907 260.294 327.917 260.577 326.954 260.903C325.956 261.133 324.966 261.407 323.941 261.531C322.934 261.725 321.9 261.761 320.875 261.849C319.85 261.849 318.816 261.902 317.792 261.796C315.742 261.69 313.692 261.328 311.757 260.7C309.831 260.073 307.94 259.225 306.482 257.899C304.989 256.556 303.743 254.922 303.027 253.084C301.817 250.018 302.294 246.687 303.619 244.133C304.909 241.536 306.871 239.654 308.656 238.346C310.467 237.047 312.146 236.296 313.321 235.837C314.496 235.377 315.185 235.183 315.159 235.059C315.141 234.98 314.416 234.971 313.144 235.28C311.88 235.581 310.06 236.208 308.055 237.463C306.084 238.735 303.884 240.661 302.382 243.488C301.64 244.893 301.066 246.51 300.898 248.26C300.703 250.009 300.951 251.873 301.622 253.614L301.614 253.623Z" fill="#E3DADA" style="user-select: auto !important;"></path>
                            <path d="M147.132 232.329C154.474 230.854 161.994 232.329 167.33 237.286C172.667 242.243 174.416 251.291 169.901 257.14C163.46 265.49 144.075 265.825 136.547 258.951C125.847 249.179 134.073 234.954 147.123 232.329H147.132Z" fill="#FFC8E1" style="user-select: auto !important;"></path>
                            <path d="M131.785 253.482C132.713 255.867 134.295 257.926 136.15 259.596C138.067 261.31 140.4 262.379 142.75 263.148C147.504 264.615 152.522 264.862 157.4 264.146C159.838 263.767 162.25 263.13 164.53 262.097C166.792 261.063 168.948 259.605 170.529 257.555C172.058 255.496 173.003 253.005 173.171 250.478C173.313 249.214 173.198 247.942 173.048 246.696C172.827 245.459 172.544 244.222 172.067 243.056C171.316 241.112 170.238 239.345 168.93 237.869C167.605 236.394 166.103 235.245 164.565 234.326C161.473 232.488 158.283 231.711 155.633 231.446C152.964 231.19 150.808 231.428 149.35 231.684C147.893 231.941 147.124 232.241 147.142 232.329C147.168 232.453 147.972 232.347 149.421 232.268C150.87 232.197 152.973 232.126 155.509 232.497C158.027 232.886 161.005 233.725 163.85 235.501C165.255 236.385 166.659 237.498 167.835 238.841C169.01 240.193 169.99 241.81 170.671 243.595C172.376 247.854 172.111 253.005 169.345 256.636C167.967 258.421 166.023 259.755 163.912 260.718C161.791 261.681 159.503 262.291 157.179 262.653C152.531 263.342 147.681 263.086 143.21 261.708C141.001 260.983 138.845 259.985 137.157 258.465C135.443 256.919 134.012 255.046 133.19 252.925C131.794 249.391 132.351 245.547 133.87 242.632C135.355 239.654 137.617 237.498 139.667 236.014C141.752 234.538 143.669 233.681 145.021 233.178C146.373 232.665 147.159 232.453 147.133 232.329C147.115 232.25 146.293 232.259 144.844 232.621C143.404 232.974 141.337 233.699 139.066 235.139C136.83 236.588 134.339 238.797 132.633 242.004C131.794 243.595 131.149 245.433 130.964 247.421C130.743 249.4 131.025 251.512 131.785 253.482Z" fill="#DAB0C3" style="user-select: auto !important;"></path>
                            <path d="M93.7656 232.33C86.4232 230.854 78.9041 232.33 73.5674 237.287C68.2218 242.244 66.4812 251.291 70.9962 257.14C77.4374 265.49 96.8227 265.826 104.351 258.952C115.051 249.18 106.825 234.954 93.7744 232.33H93.7656Z" fill="#FFC8E1" style="user-select: auto !important;"></path>
                            <path d="M107.708 252.934C106.887 255.055 105.455 256.928 103.741 258.474C102.054 259.985 99.8977 260.993 97.6888 261.717C93.218 263.104 88.3673 263.352 83.7197 262.662C81.396 262.3 79.1075 261.691 76.987 260.727C74.8841 259.764 72.9314 258.43 71.5531 256.645C68.7875 253.014 68.5313 247.863 70.2277 243.604C70.9169 241.819 71.8888 240.202 73.064 238.85C74.2391 237.507 75.644 236.394 77.0488 235.511C79.8939 233.735 82.8715 232.886 85.3896 232.507C87.9255 232.127 90.0283 232.197 91.4774 232.277C92.9264 232.347 93.7305 232.454 93.757 232.339C93.7746 232.259 93.0059 231.959 91.5481 231.702C90.0902 231.446 87.9343 231.208 85.266 231.464C82.6153 231.729 79.4256 232.507 76.3331 234.344C74.7957 235.272 73.2937 236.412 71.9684 237.887C70.6519 239.363 69.5739 241.13 68.8317 243.074C68.3546 244.24 68.0719 245.477 67.851 246.714C67.6919 247.96 67.5859 249.232 67.7272 250.496C67.8951 253.032 68.8405 255.514 70.3691 257.573C71.9507 259.614 74.1066 261.072 76.3685 262.115C78.6481 263.148 81.0602 263.785 83.4988 264.165C88.3761 264.88 93.4035 264.633 98.1483 263.166C100.499 262.397 102.831 261.328 104.748 259.614C106.604 257.935 108.186 255.886 109.113 253.5C109.864 251.53 110.156 249.418 109.935 247.439C109.749 245.451 109.104 243.613 108.265 242.022C106.569 238.815 104.068 236.606 101.833 235.157C99.562 233.717 97.4944 232.992 96.0542 232.639C94.6052 232.286 93.7835 232.268 93.7658 232.347C93.7393 232.471 94.5257 232.683 95.8775 233.196C97.2294 233.708 99.1467 234.556 101.232 236.032C103.282 237.516 105.535 239.672 107.028 242.65C108.548 245.574 109.104 249.418 107.708 252.943V252.934Z" fill="#DAB0C3" style="user-select: auto !important;"></path>
                            <path d="M142.396 367.823C138.756 363.185 130.238 345.116 125.228 341.193C127.808 339.655 134.258 332.596 136.096 330.625C139.339 327.153 149.677 313.758 149.747 310.241C149.774 308.748 147.803 308.068 146.575 308.315C144.958 308.651 144.446 310.224 143.677 311.496C141.839 314.562 136.874 322.196 133.357 326.375C128.188 332.525 125.52 335.6 121.358 337.075C121.199 334.522 121.721 326.163 121.818 323.336C121.959 319.174 122.684 311.01 124.071 308.863C123.859 308.572 120.51 305.788 118.363 308.324C116.64 310.365 114.785 318.644 114.599 321.931C114.52 323.407 115.165 325.156 115.359 325.792C115.545 327.391 114.007 344.365 113.786 348.049C113.212 357.795 113.945 364.916 115.315 368.088C116.26 370.288 117.541 371.234 119.158 371.234C121.358 371.234 122.958 369.714 123.779 367.77C122.375 367.09 121.95 365.446 121.5 363.617C120.501 359.641 121.288 346.079 121.076 344.055C123.117 346.079 129.028 357.98 130.371 360.587C132.518 364.748 136.821 372.4 140.276 376.04C142.352 378.232 144.623 379.53 146.513 379.53C147.998 379.53 149.173 379.097 150.048 378.24C150.922 377.392 151.355 376.208 151.355 374.75C148.051 374.715 145.639 371.932 142.405 367.814L142.396 367.823Z" fill="#F193BD" style="user-select: auto !important;"></path>
                            <path d="M298.141 309.376C298.884 302.06 299.82 301.397 299.113 300.443C298.548 299.683 295.181 299.206 294.21 300.46C291.868 303.995 289.323 326.994 288.572 334.318C282.467 330.236 272.474 335.114 270.813 351.919C266.21 360.525 261.836 363.229 258.231 363.282C254.502 363.335 251.843 358.952 251.463 354.101C256.517 354.579 260.617 348.296 261.368 344.091C262.074 340.079 260.458 334.442 255.527 334.69C249.979 334.972 245.322 339.832 244.553 350.382C242.945 356.213 240.136 363.22 237.052 362.999C234.331 362.804 234.154 346.344 234.304 341.263C236.442 334.009 238.006 321.966 238.112 318.821C240.834 318.759 250.155 318.883 252.276 318.759C253.875 318.671 252.647 315.313 251.701 315.287C248.406 315.207 240.436 315.375 238.112 315.375C238.165 313.033 238.519 306.124 236.186 303.606C234.984 302.307 231.565 301.662 230.081 303.367C227.934 305.841 227.28 309.685 226.918 315.278C226.167 315.278 222.464 315.366 221.758 315.366C221.819 313.475 222.279 307.423 220.432 304.428C219.381 302.722 216.659 301.397 214.071 303.04C211.968 304.375 210.642 309.296 210.545 315.755C209.582 315.879 194.464 317.027 193.369 317.186C192.918 317.248 192.37 317.707 192.397 318.158C192.503 319.846 193.651 320.12 194.88 320.058C197.778 319.934 209.856 319.316 210.483 319.377C210.121 326.543 210.077 340.062 210.536 343.852C208.972 344.727 207.276 345.434 205.288 346.017C205.253 342.942 204.016 336.757 201.126 334.504C200.057 333.665 196.903 332.083 194.226 334.009C192.68 335.122 191.937 337.923 192.079 340.132C190.948 339.284 188.359 339.072 186.698 340.406C184.701 342.014 184.224 345.937 184.392 349.436C183.49 351.212 180.186 356.77 178.543 357.883C176.987 358.934 175.91 358.493 175.203 356.549C174.31 354.11 173.011 347.863 171.527 344.7C170.537 342.606 168.788 339.823 165.934 339.823C163.628 339.823 161.737 341.193 160.456 343.667C160.827 338.577 160.491 335.308 157.885 334.893C154.845 334.416 153.211 335.237 153.458 337.959C153.829 342.032 152.045 358.608 154.854 363.653C155.649 365.075 156.524 366.082 158.972 366.012C161.516 365.941 162.312 364.368 162.046 362.822C161.631 360.357 161.234 353.721 161.649 349.984C162.02 346.688 163.23 343.764 165.333 343.914C167.489 344.064 168.638 348.561 169.663 353.359C170.467 357.106 172.296 359.88 173.259 360.746C175.167 362.478 178.004 362.062 179.214 361.7C180.972 361.179 183.95 358.21 184.878 356.461C185.372 359.129 186.389 361.921 188.403 363.847C192.582 367.841 198.617 366.807 201.745 362.292C203.592 359.633 205.447 353.642 205.385 349.339C207.179 349.083 208.999 348.508 210.863 347.625C211.137 354.72 211.906 361.046 214.777 364.342C218.108 368.168 223.101 367.231 225.981 364.218C227.112 363.034 228.04 361.806 228.879 360.286C230.266 363.909 232.378 367.364 237.485 366.683C242.61 366.003 244.836 361.17 245.782 359.191C247.416 363.043 251.799 366.719 257.347 366.807C263.426 366.895 267.65 363.662 271.246 358.404C272.182 361.064 274.109 363.396 278.765 363.37C283.969 363.343 287.229 358.652 289.536 350.947C289.589 362.425 291.232 372.851 293.759 377.304C295.544 380.44 299.431 378.735 302.047 377.419C293.414 357.618 296.586 324.555 298.133 309.367L298.141 309.376ZM194.986 361.559C192.865 361.055 191.266 346.167 192.556 341.793C193.316 345.549 196.744 349.896 199.819 349.224C199.112 352.909 197.928 362.257 194.977 361.559H194.986ZM197.451 336.315C199.43 335.988 200.031 343.419 200.163 344.886C196.523 342.862 196.134 336.536 197.451 336.315ZM234.446 307.149C235.647 307.228 235.647 312.998 235.532 315.278C235.532 315.278 234.233 315.278 233.474 315.278C233.438 313.652 233.597 307.096 234.437 307.149H234.446ZM218.1 307.149C219.31 307.22 219.213 313.449 219.169 315.472H217.137C217.137 313.643 217.225 307.105 218.1 307.149ZM217.19 332.702C216.995 327.833 217.092 320.765 217.092 319.872C217.782 319.837 218.444 319.802 219.089 319.766C218.868 323.097 218.223 328.999 217.181 332.693L217.19 332.702ZM220.715 362.999C217.879 362.893 217.861 344.859 217.967 341.263C220.096 332.737 221.316 324.926 221.758 319.625C223.392 319.545 225.089 319.466 226.865 319.377C226.264 328.876 226.326 342.138 227.642 352.343C226.52 355.842 224.232 363.123 220.715 362.99V362.999ZM233.535 332.702C233.35 331.332 233.421 323.76 233.447 318.847C233.447 318.847 234.967 318.847 235.479 318.847C235.444 321.498 234.534 328.452 233.544 332.702H233.535ZM251.94 344.789C252.841 340.556 253.972 337.897 255.978 337.649C257.259 337.429 257.657 340.141 256.464 344.497C255.978 346.273 254.37 351.062 251.958 351.707C250.588 352.078 251.648 346.185 251.94 344.789ZM284.42 349.719C283.837 351.46 281.204 359.341 278.809 359.429C276.3 359.526 277.157 349.807 278.297 345.451C280.099 338.56 282.547 335.644 283.757 335.458C285.56 335.184 287.45 337.225 287.901 337.729C287.777 338.233 284.994 347.978 284.42 349.719Z" fill="#F193BD" style="user-select: auto !important;"></path>
                            <path d="M309.549 370.333C310.141 370.668 310.609 371.128 310.953 371.711C311.298 372.294 311.466 372.922 311.466 373.602C311.466 374.282 311.298 374.927 310.953 375.502C310.609 376.076 310.149 376.535 309.549 376.871C308.957 377.207 308.294 377.375 307.569 377.375C306.845 377.375 306.182 377.207 305.59 376.871C304.998 376.535 304.53 376.076 304.185 375.502C303.841 374.927 303.673 374.291 303.673 373.602C303.673 372.913 303.841 372.294 304.185 371.711C304.53 371.128 304.989 370.677 305.59 370.333C306.182 369.997 306.845 369.829 307.569 369.829C308.294 369.829 308.957 369.997 309.549 370.333ZM309.16 376.244C309.628 375.979 309.99 375.616 310.247 375.157C310.503 374.698 310.635 374.176 310.635 373.593C310.635 373.01 310.503 372.506 310.247 372.047C309.99 371.587 309.628 371.225 309.151 370.96C308.683 370.695 308.153 370.562 307.561 370.562C306.969 370.562 306.438 370.695 305.97 370.96C305.502 371.225 305.14 371.587 304.874 372.047C304.618 372.506 304.486 373.019 304.486 373.593C304.486 374.167 304.618 374.698 304.874 375.157C305.131 375.616 305.493 375.979 305.961 376.244C306.43 376.509 306.96 376.641 307.561 376.641C308.161 376.641 308.692 376.509 309.16 376.244ZM309.027 373.54C308.921 373.717 308.762 373.858 308.559 373.947L309.46 375.272H308.462L307.658 374.026H306.995V375.272H306.12V371.861H308.1C308.435 371.861 308.691 371.967 308.895 372.171C309.089 372.374 309.195 372.63 309.195 372.939C309.195 373.16 309.142 373.363 309.027 373.54ZM306.995 373.266H307.932C308.046 373.266 308.126 373.24 308.197 373.178C308.259 373.116 308.294 373.036 308.294 372.939C308.294 372.842 308.259 372.754 308.197 372.701C308.135 372.639 308.046 372.612 307.932 372.612H306.995V373.275V373.266Z" fill="#F193BD" style="user-select: auto !important;"></path>
                        </svg>