<svg class="tms-bg5" xmlns="http://www.w3.org/2000/svg" width="92" height="93" viewBox="0 0 92 93" fill="none" style="user-select: auto !important; transform: translateY(-5%) rotate(-5deg);">
                <path d="M46.0083 46.4916C47.7736 45.3864 55.2968 40.8485 62.8108 38.8019C67.6424 37.4866 71.7061 37.5369 74.9763 38.4773C80.2919 32.8499 79.8631 25.3951 75.9403 20.8861C70.2741 14.3815 61.979 18.0817 61.979 18.0817C61.979 18.0817 60.9305 8.89424 52.5785 7.16613C46.7914 5.97274 40.2682 9.34899 38.192 16.8746C37.268 20.2144 37.2211 24.3734 38.5028 29.3127C40.4922 36.9955 44.9243 44.689 46.007 46.4866L46.0083 46.4916Z" fill="#5CB784" style="user-select: auto !important;"></path>
                <path d="M46.0008 46.53C47.075 48.3356 51.5118 56.0287 53.5 63.7074C54.7816 68.6473 54.7312 72.8132 53.812 76.152C59.3102 81.5827 66.6008 81.1371 71.014 77.1211C77.3817 71.3252 73.7698 62.8406 73.7698 62.8406C73.7698 62.8406 82.7554 61.7597 84.4533 53.2166C85.6258 47.2972 82.3316 40.6344 74.9727 38.5133C71.7027 37.5728 67.6404 37.5275 62.8076 38.8379C55.2926 40.8798 47.7646 45.4197 46.0057 46.5287L46.0008 46.53Z" fill="#5CB784" style="user-select: auto !important;"></path>
                <path d="M53.4915 63.6726C51.5033 55.9948 47.0713 48.3013 45.9921 46.4973C44.2269 47.6025 36.6988 52.1418 29.1897 54.1871C24.3581 55.5023 20.2894 55.4533 17.0242 54.5116C11.7086 60.139 12.1374 67.5938 16.0601 72.1028C21.7264 78.6074 30.0215 74.9072 30.0215 74.9072C30.0215 74.9072 31.0699 84.0947 39.422 85.8228C45.2042 87.0175 51.7225 83.6426 53.8084 76.1143C54.7276 72.7759 54.7794 68.6155 53.4964 63.6712L53.4915 63.6726Z" fill="#5CB784" style="user-select: auto !important;"></path>
                <path d="M45.9994 46.459C44.9203 44.6548 40.4897 36.9654 38.4953 29.2831C37.2137 24.3432 37.2606 20.1836 38.1846 16.8435C32.6864 11.4127 25.3958 11.8583 20.9875 15.8729C14.6198 21.6689 18.2317 30.1534 18.2317 30.1534C18.2317 30.1534 9.24607 31.2344 7.54819 39.7774C6.37565 45.6968 9.66987 52.3597 17.0288 54.4807C20.2939 55.4226 24.3611 55.4666 29.1939 54.1561C36.7041 52.1156 44.232 47.5757 45.9958 46.4654L45.9994 46.459Z" fill="#5CB784" style="user-select: auto !important;"></path>
                </svg>