<svg class="tms-bg3" xmlns="http://www.w3.org/2000/svg" width="173" height="173" viewBox="0 0 173 173" fill="none" style="user-select: auto !important; transform: translateY(-10%) rotate(5deg);">
                <g clip-path="url(#clip0_589_9596)" style="user-select: auto !important;">
                    <path d="M86.07 0C38.54 0 0 38.53 0 86.07C0 133.61 38.54 172.14 86.07 172.14C133.6 172.14 172.14 133.61 172.14 86.07C172.14 38.53 133.61 0 86.07 0ZM86.64 106.47C75.26 106.47 66.03 97.24 66.03 85.86C66.03 74.48 75.26 65.25 86.64 65.25C98.02 65.25 107.25 74.48 107.25 85.86C107.25 97.24 98.02 106.47 86.64 106.47Z" fill="#FFEEA4" style="user-select: auto !important;"></path>
                    <path d="M32.2598 40.5199C33.1398 38.5899 34.8398 38.2799 36.5898 39.5899C38.0398 40.6699 38.2898 41.8099 37.5198 43.3799C35.5698 47.4199 34.4098 49.3099 32.4098 53.3199C31.2598 55.6199 30.2498 55.6099 28.8298 54.9499C27.4098 54.2899 26.2198 52.9199 27.4698 50.0599C29.7698 44.7699 31.1198 42.9999 32.2498 40.5199H32.2598Z" fill="#F8C9DF" style="user-select: auto !important;"></path>
                    <path d="M63.4998 108.15C65.2698 106.99 66.8798 107.64 67.6598 109.68C68.3098 111.37 67.9098 112.46 66.4198 113.39C62.6198 115.76 60.6298 116.75 56.7898 119.06C54.5898 120.39 53.7398 119.85 52.8998 118.53C52.0498 117.21 51.7798 115.42 54.3598 113.67C59.1298 110.43 61.2198 109.65 63.4998 108.16V108.15Z" fill="#F8C9DF" style="user-select: auto !important;"></path>
                    <path d="M130.1 146.63C130.18 148.75 128.8 149.79 126.65 149.41C124.87 149.09 124.14 148.19 124.11 146.44C124.04 141.96 124.22 139.75 124.21 135.27C124.21 132.7 125.11 132.25 126.67 132.21C128.24 132.16 129.91 132.85 130.08 135.97C130.4 141.73 129.99 143.92 130.09 146.64L130.1 146.63Z" fill="#F0BCBF" style="user-select: auto !important;"></path>
                    <path d="M148.65 61.5402C148.34 59.4402 149.61 58.2602 151.78 58.4102C153.58 58.5402 154.41 59.3502 154.62 61.0902C155.17 65.5402 155.22 67.7602 155.71 72.2102C155.99 74.7702 155.14 75.3002 153.59 75.5202C152.04 75.7302 150.3 75.2302 149.79 72.1502C148.86 66.4502 149.03 64.2402 148.64 61.5402H148.65Z" fill="#F8C9DF" style="user-select: auto !important;"></path>
                    <path d="M106.97 18.8099C108.98 19.4699 109.48 21.1299 108.37 23.0099C107.45 24.5699 106.35 24.9399 104.7 24.3499C100.48 22.8499 98.4598 21.9099 94.2598 20.3599C91.8498 19.4699 91.7498 18.4699 92.2498 16.9799C92.7498 15.4999 93.9798 14.1699 96.9598 15.0899C102.47 16.7999 104.38 17.9499 106.97 18.7999V18.8099Z" fill="#F8C9DF" style="user-select: auto !important;"></path>
                    <path d="M66.6402 54.8498C68.3602 56.0898 68.3302 57.8198 66.7102 59.2798C65.3702 60.4898 64.2102 60.5198 62.8102 59.4598C59.2302 56.7598 57.6002 55.2598 54.0602 52.5098C52.0302 50.9298 52.2302 49.9498 53.1602 48.6798C54.0902 47.4098 55.6602 46.5198 58.2202 48.2998C62.9602 51.5898 64.4402 53.2598 66.6502 54.8498H66.6402Z" fill="#B1D6E4" style="user-select: auto !important;"></path>
                    <path d="M124.3 70.2502C125.03 72.2402 124.03 73.6602 121.88 73.9602C120.09 74.2102 119.11 73.5802 118.55 71.9202C117.1 67.6802 116.59 65.5202 115.2 61.2602C114.4 58.8102 115.12 58.1202 116.6 57.5902C118.07 57.0602 119.88 57.2002 121.01 60.1102C123.09 65.4902 123.38 67.7002 124.32 70.2602L124.3 70.2502Z" fill="#B1D6E4" style="user-select: auto !important;"></path>
                    <path d="M98.65 132.73C99.38 134.72 98.38 136.14 96.23 136.44C94.44 136.69 93.46 136.06 92.9 134.4C91.45 130.16 90.94 128 89.55 123.74C88.75 121.29 89.47 120.6 90.95 120.07C92.42 119.54 94.23 119.68 95.36 122.59C97.44 127.97 97.73 130.18 98.67 132.74L98.65 132.73Z" fill="#B1D6E4" style="user-select: auto !important;"></path>
                    <path d="M34.0802 109.89C35.5302 111.43 35.1702 113.13 33.3002 114.25C31.7502 115.18 30.6102 114.98 29.4302 113.68C26.4302 110.35 25.1202 108.56 22.1702 105.19C20.4802 103.25 20.8702 102.33 22.0202 101.26C23.1702 100.2 24.8902 99.6099 27.0602 101.85C31.0802 105.99 32.2102 107.9 34.0802 109.89Z" fill="#B1D6E4" style="user-select: auto !important;"></path>
                    <path d="M15.9698 83.5702C13.9098 84.0802 12.6098 82.9402 12.5498 80.7602C12.4998 78.9502 13.2198 78.0502 14.9398 77.6702C19.3098 76.6802 21.5198 76.4102 25.8998 75.4802C28.4198 74.9502 29.0298 75.7402 29.3998 77.2602C29.7698 78.7802 29.4398 80.5602 26.4198 81.3702C20.8498 82.8602 18.6198 82.9102 15.9798 83.5702H15.9698Z" fill="#EAC88F" style="user-select: auto !important;"></path>
                    <path d="M72.5701 27.3502C74.4401 28.3502 74.6301 30.0702 73.2201 31.7302C72.0501 33.1002 70.9001 33.2802 69.3701 32.4102C65.4701 30.2002 63.6501 28.9202 59.7901 26.6602C57.5701 25.3602 57.6501 24.3602 58.4001 22.9802C59.1501 21.6002 60.6001 20.5102 63.3701 21.9402C68.5001 24.5802 70.1801 26.0502 72.5801 27.3402L72.5701 27.3502Z" fill="#F193BD" style="user-select: auto !important;"></path>
                    <path d="M48.9101 77.38C50.0001 75.56 51.7301 75.45 53.3201 76.94C54.6401 78.18 54.7601 79.33 53.8201 80.82C51.4301 84.61 50.0701 86.37 47.6301 90.12C46.2301 92.28 45.2301 92.15 43.8901 91.34C42.5501 90.53 41.5301 89.03 43.0801 86.33C45.9601 81.33 47.5001 79.72 48.9001 77.38H48.9101Z" fill="#F193BD" style="user-select: auto !important;"></path>
                    <path d="M65.6699 137.29C66.4999 135.34 68.1899 134.99 69.9699 136.25C71.4399 137.29 71.7299 138.42 70.9999 140.02C69.1599 144.11 68.0499 146.03 66.1499 150.09C65.0599 152.42 64.0599 152.44 62.6199 151.81C61.1799 151.19 59.9599 149.85 61.1299 146.96C63.2899 141.61 64.5899 139.81 65.6599 137.3L65.6699 137.29Z" fill="white" style="user-select: auto !important;"></path>
                    <path d="M113.22 116.45C111.2 115.8 110.7 114.15 111.79 112.26C112.69 110.7 113.79 110.31 115.45 110.89C119.69 112.35 121.71 113.28 125.92 114.8C128.34 115.67 128.45 116.67 127.96 118.16C127.47 119.65 126.25 120.99 123.26 120.09C117.73 118.42 115.82 117.29 113.22 116.46V116.45Z" fill="#F193BD" style="user-select: auto !important;"></path>
                    <path d="M153.45 106C154.73 104.31 156.46 104.39 157.88 106.05C159.05 107.42 159.05 108.59 157.95 109.96C155.15 113.46 153.61 115.06 150.77 118.52C149.14 120.51 148.16 120.28 146.92 119.32C145.68 118.36 144.83 116.76 146.67 114.25C150.09 109.6 151.79 108.17 153.44 106H153.45Z" fill="#F193BD" style="user-select: auto !important;"></path>
                    <path d="M134.93 35.8102C136.9 35.0402 138.34 36.0002 138.69 38.1502C138.98 39.9302 138.37 40.9202 136.72 41.5302C132.51 43.0702 130.36 43.6302 126.14 45.1202C123.71 45.9702 123 45.2702 122.44 43.8102C121.88 42.3502 121.98 40.5402 124.86 39.3502C130.19 37.1502 132.39 36.8102 134.93 35.8202V35.8102Z" fill="#F193BD" style="user-select: auto !important;"></path>
                    <path d="M94.9402 53.6202C94.0202 55.5302 92.3102 55.8102 90.5902 54.4702C89.1702 53.3602 88.9302 52.2202 89.7302 50.6602C91.7602 46.6602 92.9502 44.7902 95.0302 40.8202C96.2302 38.5402 97.2302 38.5702 98.6402 39.2602C100.05 39.9502 101.21 41.3402 99.9102 44.1802C97.5002 49.4302 96.1202 51.1702 94.9402 53.6302V53.6202Z" fill="#EAC88F" style="user-select: auto !important;"></path>
                    <path d="M88.7802 158.86C86.7002 159.27 85.4602 158.06 85.5102 155.88C85.5502 154.07 86.3202 153.21 88.0502 152.91C92.4702 152.15 94.6802 151.99 99.1102 151.29C101.65 150.89 102.23 151.71 102.52 153.25C102.81 154.79 102.39 156.55 99.3302 157.2C93.6902 158.4 91.4602 158.33 88.7902 158.85L88.7802 158.86Z" fill="#FFE06E" style="user-select: auto !important;"></path>
                    <path d="M39.91 129.79C42.02 129.94 42.91 131.43 42.3 133.52C41.79 135.25 40.82 135.89 39.07 135.72C34.61 135.31 32.43 134.89 27.97 134.41C25.41 134.14 25.07 133.19 25.19 131.63C25.31 130.07 26.18 128.48 29.3 128.64C35.06 128.95 37.19 129.59 39.91 129.78V129.79Z" fill="#EAC88F" style="user-select: auto !important;"></path>
                    <path d="M128.02 95.8C126.05 96.47 124.58 95.43 124.18 93.27C123.85 91.48 124.44 90.53 126.08 90.01C130.28 88.7 133.05 87.39 137.27 86.14C139.69 85.42 140.43 86.16 141.03 87.64C141.63 89.12 141.57 90.92 138.69 91.95C133.37 93.86 130.55 94.94 128.02 95.79V95.8Z" fill="#EAC88F" style="user-select: auto !important;"></path>
                </g>
                <defs style="user-select: auto !important;">
                    <clipPath id="clip0_589_9596" style="user-select: auto !important;">
                    <rect width="172.14" height="172.14" fill="white" style="user-select: auto !important;"></rect>
                    </clipPath>
                </defs>
                </svg>