<svg class="tms-bg1" xmlns="http://www.w3.org/2000/svg" width="220" height="221" viewBox="0 0 220 221" fill="none" style="user-select: auto !important; transform: translateY(-10%) rotate(5deg);">
                <path d="M128.548 47.5318L117.813 27.052C105.175 2.93523 75.8209 -6.12843 52.2505 6.80313C28.6801 19.7347 19.8218 49.7688 32.4604 73.8856L40.4723 89.1552L25.5486 97.3529C1.97823 110.284 -6.88008 140.319 5.75852 164.435C18.3971 188.552 47.7508 197.616 71.3212 184.684L91.3371 173.701M91.3371 173.701L102.071 194.181C114.71 218.298 144.064 227.361 167.634 214.43C191.205 201.498 200.063 171.464 187.424 147.347L179.412 132.078L194.336 123.88C217.906 110.948 226.765 80.9142 214.126 56.7974C201.488 32.6807 172.134 23.617 148.563 36.5486L128.548 47.5318" fill="#5CB784" style="user-select: auto !important;"></path>
                <path d="M137.674 153.467L126.263 131.717C123.117 125.713 119.859 121.224 119.012 121.686C118.152 122.163 120.014 127.416 123.159 133.42L134.571 155.17C137.716 161.174 140.975 165.662 141.821 165.2C142.681 164.724 140.819 159.471 137.674 153.467Z" fill="#656565" style="user-select: auto !important;"></path>
                <path d="M65.3547 133.809L86.6119 122.133C92.4798 118.915 96.8666 115.581 96.4152 114.715C95.9497 113.835 90.8153 115.74 84.9474 118.958L63.6903 130.634C57.8224 133.853 53.4355 137.187 53.8869 138.053C54.3524 138.933 59.4727 137.028 65.3547 133.809Z" fill="#656565" style="user-select: auto !important;"></path>
                <path d="M82.2101 67.7949L93.6215 89.5447C96.7671 95.5486 100.025 100.037 100.872 99.5753C101.732 99.0991 99.8703 93.8456 96.7247 87.8417L85.3133 66.0918C82.1678 60.0879 78.9094 55.5994 78.0631 56.0612C77.2026 56.5375 79.0646 61.7909 82.2101 67.7949Z" fill="#656565" style="user-select: auto !important;"></path>
                <path d="M154.53 87.4522L133.273 99.1281C127.405 102.347 123.018 105.68 123.469 106.546C123.935 107.427 129.055 105.522 134.937 102.303L156.194 90.6273C162.062 87.4089 166.449 84.075 165.998 83.209C165.532 82.3287 160.412 84.2338 154.53 87.4522Z" fill="#656565" style="user-select: auto !important;"></path>
                </svg>