<svg class="tms-bg4" xmlns="http://www.w3.org/2000/svg" width="167" height="172" viewBox="0 0 167 172" fill="none" style="user-select: auto !important; transform: translateY(-5%) rotate(0.5deg);">
                <path d="M32.1381 74.0194C18.0181 70.6839 3.93807 79.6981 0.678073 94.1351C-2.58193 108.582 6.22807 122.989 20.3381 126.314C17.0781 140.761 25.8881 155.168 39.9981 158.493C54.1181 161.829 68.1981 152.814 71.4581 138.377C68.1981 152.825 77.0081 167.231 91.1181 170.556C105.238 173.892 119.318 164.878 122.568 150.441C136.688 153.776 150.768 144.762 154.018 130.325C157.278 115.878 148.468 101.471 134.358 98.146C148.478 101.482 162.558 92.4673 165.808 78.0303C169.068 63.583 160.258 49.1766 146.148 45.8513C149.408 31.404 140.598 16.9976 126.488 13.6723C112.368 10.3367 98.2881 19.351 95.0381 33.788" fill="#FFEEA4" style="user-select: auto !important;"></path>
                <path d="M95.0481 33.778C98.3081 19.3307 89.4981 4.92437 75.3881 1.58881C61.2681 -1.74676 47.1881 7.26746 43.9381 21.7045C29.8181 18.369 15.7381 27.3832 12.4881 41.8202C9.22813 56.2675 18.0381 70.6739 32.1481 74.0095" fill="#FFEEA4" style="user-select: auto !important;"></path>
                <path d="M91.7077 100.97C90.2877 94.8005 91.7677 88.8251 95.4077 88.3749C99.0277 87.9247 101.318 93.3271 101.988 98.7602" fill="#F8C9DF" style="user-select: auto !important;"></path>
                <path d="M92.9179 100.632C92.3679 97.9926 91.4579 90.7076 95.2579 89.7049C99.1679 88.6715 100.448 96.6523 100.778 99.0977C100.998 100.725 103.408 100.029 103.188 98.4224C102.618 94.2683 100.428 85.6429 94.5879 87.239C89.1379 88.7226 89.6179 97.082 90.4979 101.318C90.8379 102.924 93.2479 102.249 92.9079 100.643L92.9179 100.632Z" fill="#656565" style="user-select: auto !important;"></path>
                <path d="M67.1081 95.629C71.3281 98.6371 76.1181 100.755 81.1581 101.829C86.1981 102.842 91.4281 102.842 96.4581 101.727C100.638 100.806 104.178 98.9646 106.368 97.1638C108.578 95.3527 109.428 93.7259 109.188 93.5315C108.908 93.2757 107.648 94.3807 105.378 95.6699C103.118 96.9591 99.7981 98.3813 95.9181 99.2408C91.2481 100.284 86.3481 100.284 81.6481 99.3431C76.9681 98.3404 72.4681 96.3554 68.5381 93.5519C65.2781 91.2293 62.7381 88.6304 61.1381 86.5534C59.5481 84.4763 58.8781 82.9313 58.5181 83.0439C58.2181 83.1053 58.3081 84.9777 59.6681 87.5458C61.0181 90.0833 63.6181 93.1529 67.1181 95.6494L67.1081 95.629Z" fill="#656565" style="user-select: auto !important;"></path>
                <path d="M111.798 94.4013C111.258 93.1019 110.468 91.8434 109.348 90.8611C108.388 90.0221 107.198 90.1653 106.978 90.8202C106.728 91.4955 107.128 92.2628 107.728 92.8051C108.488 93.46 109.078 94.3911 109.508 95.404C109.858 96.2328 110.538 96.816 111.218 96.7137C111.908 96.6011 112.268 95.5063 111.808 94.4115L111.798 94.4013Z" fill="#656565" style="user-select: auto !important;"></path>
                <path d="M73.4281 75.0426C77.7981 75.9533 81.0181 61.0148 76.6981 60.1246C72.0081 59.1526 68.6081 74.0501 73.4281 75.0426Z" fill="#656565" style="user-select: auto !important;"></path>
                <path d="M73.4283 76.025C77.1683 76.4649 78.8283 70.7658 79.3583 67.9623C79.8483 65.343 80.3783 59.8792 76.8283 59.163C70.6483 57.9147 66.9683 74.1832 73.1783 75.984C74.3683 76.3319 74.8683 74.439 73.6883 74.1014C69.6883 72.935 73.1483 59.9713 76.5883 61.1275C79.8283 62.2223 77.0283 74.4902 73.4383 74.0605C72.2183 73.9172 72.2283 75.8715 73.4383 76.0147L73.4283 76.025Z" fill="#656565" style="user-select: auto !important;"></path>
                <path d="M98.4779 80.2403C102.848 81.151 106.068 66.2126 101.748 65.3224C97.0579 64.3504 93.6579 79.2479 98.4779 80.2403Z" fill="#656565" style="user-select: auto !important;"></path>
                <path d="M98.4781 81.2125C102.218 81.6524 103.878 75.9533 104.408 73.1498C104.898 70.5305 105.428 65.0667 101.878 64.3505C95.6981 63.1022 92.0181 79.3707 98.2281 81.1715C99.4181 81.5194 99.9181 79.6265 98.7381 79.2889C94.7381 78.1225 98.1981 65.1588 101.638 66.315C104.878 67.4098 102.078 79.6777 98.4881 79.248C97.2681 79.1047 97.2781 81.059 98.4881 81.2022L98.4781 81.2125Z" fill="#656565" style="user-select: auto !important;"></path>
                </svg>